SplineFontDB: 3.2
FontName: Rocohn-Light
FullName: Rocohn Light
FamilyName: Rocohn
Weight: Light
Copyright: Copyright (c) 2019, Ronen.Cohen
UComments: "2019-9-27: Created with FontForge (http://fontforge.org)"
Version: 001.000
ItalicAngle: 0
UnderlinePosition: -100
UnderlineWidth: 50
Ascent: 800
Descent: 200
InvalidEm: 0
LayerCount: 2
Layer: 0 0 "Back" 1
Layer: 1 0 "Fore" 0
XUID: [1021 1023 -1521988005 18956]
StyleMap: 0x0000
FSType: 0
OS2Version: 0
OS2_WeightWidthSlopeOnly: 0
OS2_UseTypoMetrics: 1
CreationTime: 1569588779
ModificationTime: 1578820350
OS2TypoAscent: 0
OS2TypoAOffset: 1
OS2TypoDescent: 0
OS2TypoDOffset: 1
OS2TypoLinegap: 90
OS2WinAscent: 0
OS2WinAOffset: 1
OS2WinDescent: 0
OS2WinDOffset: 1
HheadAscent: 0
HheadAOffset: 1
HheadDescent: 0
HheadDOffset: 1
OS2Vendor: 'PfEd'
MarkAttachClasses: 1
DEI: 91125
Encoding: iso8859-8
UnicodeInterp: none
NameList: AGL For New Fonts
DisplaySize: -48
AntiAlias: 1
FitToEm: 0
WinInfo: 48 24 9
BeginPrivate: 0
EndPrivate
BeginChars: 256 224

StartChar: uni05D0
Encoding: 224 1488 1
Width: 629
VWidth: 0
Flags: HW
LayerCount: 2
Fore
SplineSet
503.990234375 297.33984375 m 0
 488.427734375 265.1953125 459.133789062 215.390625 438.599609375 186.169921875 c 1
 589 0 l 1
 524.73046875 0 l 1
 180.879882812 425.610351562 l 1
 91.099609375 0 l 1
 40 0 l 1
 140.379882812 475.740234375 l 1
 40 600 l 1
 104.26953125 600 l 1
 405.669921875 226.940429688 l 1
 465.0703125 315.370117188 519.290039062 437.26953125 538.669921875 600 c 1
 588.990234375 600 l 1
 576.51953125 489.740234375 547.990234375 388.059570312 503.990234375 297.33984375 c 0
EndSplineSet
EndChar

StartChar: uni05D1
Encoding: 225 1489 2
Width: 600
VWidth: 0
Flags: HW
LayerCount: 2
Fore
SplineSet
476.33984375 50 m 1
 560 50 l 1
 560 0 l 1
 40 0 l 1
 40 50 l 1
 426.33984375 50 l 1
 426.33984375 354 l 2
 426.33984375 463.889648438 336.900390625 550 222.709960938 550 c 2
 40 550 l 1
 40 600 l 1
 222.709960938 600 l 2
 364.940429688 600 476.33984375 492 476.33984375 354 c 2
 476.33984375 50 l 1
EndSplineSet
EndChar

StartChar: uni05D2
Encoding: 226 1490 3
Width: 493
VWidth: 0
Flags: HW
LayerCount: 2
Fore
SplineSet
322.770507812 132.08984375 m 0
 290.30078125 94 253.930664062 63.6103515625 214.680664062 41.7099609375 c 0
 173.654296875 18.6845703125 102.174804688 -0.001953125 55.12890625 -0.001953125 c 0
 54.7900390625 -0.001953125 54.2392578125 -0.0009765625 53.900390625 0 c 2
 40 0 l 1
 40 50 l 1
 53.900390625 50 l 2
 141.760742188 50 219.090820312 88.150390625 283.75 163.440429688 c 0
 306.201171875 189.817382812 336.396484375 236.66015625 351.150390625 268 c 1
 296.990234375 550 l 1
 149.650390625 550 l 1
 149.650390625 600 l 1
 338.30078125 600 l 1
 403.05078125 262.780273438 l 1
 403.350585938 262.669921875 l 2
 403.3203125 262.580078125 403.260742188 262.41015625 403.169921875 262.190429688 c 2
 453.450195312 0.330078125 l 1
 402.530273438 0.330078125 l 1
 365.930664062 190.940429688 l 1
 355.1875 173.83984375 335.8515625 147.475585938 322.770507812 132.08984375 c 0
EndSplineSet
EndChar

StartChar: uni05D3
Encoding: 227 1491 4
Width: 600
VWidth: 0
Flags: HW
LayerCount: 2
Fore
SplineSet
560 600 m 1
 560 550 l 1
 468.259765625 550 l 1
 468.259765625 0 l 1
 418.259765625 0 l 1
 418.259765625 550 l 1
 40 550 l 1
 40 600 l 1
 560 600 l 1
EndSplineSet
EndChar

StartChar: uni05D4
Encoding: 228 1492 5
Width: 600
VWidth: 0
Flags: HW
LayerCount: 2
Fore
SplineSet
306.370117188 600 m 2
 448.58984375 600 560 491.9296875 560 354 c 2
 560 0 l 1
 510 0 l 1
 510 354 l 2
 510 463.889648438 420.549804688 550 306.370117188 550 c 2
 40 550 l 1
 40 600 l 1
 306.370117188 600 l 2
48 0 m 1
 48 345.240234375 l 1
 98 345.240234375 l 1
 98 0 l 1
 48 0 l 1
EndSplineSet
EndChar

StartChar: uni05D5
Encoding: 229 1493 6
Width: 130
VWidth: 0
Flags: HW
LayerCount: 2
Fore
SplineSet
40 0 m 1
 40 600 l 1
 90 600 l 1
 90 0 l 1
 40 0 l 1
EndSplineSet
EndChar

StartChar: uni05D6
Encoding: 230 1494 7
Width: 355
VWidth: 0
Flags: HW
LayerCount: 2
Fore
SplineSet
315.439453125 561.58984375 m 1
 285.481445312 549.422851562 234.982421875 537.797851562 202.719726562 535.639648438 c 1
 202.719726562 0 l 1
 152.719726562 0 l 1
 152.719726562 535.58984375 l 1
 120.455078125 537.760742188 69.9560546875 549.409179688 40 561.58984375 c 1
 58.7998046875 607.919921875 l 1
 90.25390625 595.15234375 143.33203125 584.790039062 177.278320312 584.790039062 c 0
 177.400390625 584.790039062 177.59765625 584.790039062 177.719726562 584.790039062 c 0
 177.844726562 584.790039062 178.046875 584.790039062 178.171875 584.790039062 c 0
 212.118164062 584.790039062 265.196289062 595.15234375 296.649414062 607.919921875 c 1
 315.439453125 561.58984375 l 1
EndSplineSet
EndChar

StartChar: uni05D7
Encoding: 231 1495 8
Width: 653
VWidth: 0
Flags: HW
LayerCount: 2
Fore
SplineSet
613 0 m 1
 563 0 l 1
 563 354 l 2
 563 463.9296875 473.549804688 550 359.360351562 550 c 2
 90 550 l 1
 90 0 l 1
 40 0 l 1
 40 600 l 1
 359.360351562 600 l 2
 501.58984375 600 613 491.9296875 613 354 c 2
 613 0 l 1
EndSplineSet
EndChar

StartChar: uni05D8
Encoding: 232 1496 9
Width: 650
VWidth: 0
Flags: HW
LayerCount: 2
Fore
SplineSet
396 605 m 0
 516 605 610 513.740234375 610 397.240234375 c 2
 610 279.0703125 l 2
 610 122.830078125 481.240234375 -5 325 -5 c 0
 168.759765625 -5 40 122.830078125 40 279.0703125 c 2
 40 600 l 1
 90 600 l 1
 90 282.5 l 2
 90 151.879882812 196.169921875 45 325 45 c 0
 453.830078125 45 560 151.879882812 560 282.5 c 2
 560 397.240234375 l 2
 560 485.700195312 488 555 396 555 c 0
 345.33984375 555 300.759765625 534 270.900390625 500.400390625 c 1
 247.849609375 548.469726562 l 1
 286 583.669921875 338 605 396 605 c 0
EndSplineSet
EndChar

StartChar: uni05D9
Encoding: 233 1497 10
Width: 281
VWidth: 0
Flags: HW
LayerCount: 2
Fore
SplineSet
201.3203125 343.200195312 m 1
 155.259765625 362.66015625 l 1
 174.989257812 409.375976562 191.000976562 488.446289062 191.000976562 539.157226562 c 0
 191.000976562 539.442382812 191.000976562 539.905273438 191 540.190429688 c 2
 191 550 l 1
 40 550 l 1
 40 600 l 1
 241 600 l 1
 241 540.190429688 l 2
 241.000976562 539.884765625 241.000976562 539.388671875 241.000976562 539.083007812 c 0
 241.000976562 482.80078125 223.223632812 395.044921875 201.3203125 343.200195312 c 1
EndSplineSet
EndChar

StartChar: uni05DA
Encoding: 234 1498 11
Width: 558
VWidth: 0
Flags: HW
LayerCount: 2
Fore
SplineSet
518.19921875 -113.690429688 m 1
 468.19921875 -113.690429688 l 1
 468.19921875 340.5703125 l 2
 468.19921875 456 374.25 550 258.76953125 550 c 2
 40 550 l 1
 40 600 l 1
 258.76953125 600 l 2
 327.76953125 600 392.889648438 572.940429688 442.01953125 523.809570312 c 0
 491.149414062 474.6796875 518.19921875 409.610351562 518.19921875 340.5703125 c 2
 518.19921875 -113.690429688 l 1
EndSplineSet
EndChar

StartChar: uni05DB
Encoding: 235 1499 12
Width: 562
VWidth: 0
Flags: HW
LayerCount: 2
Fore
SplineSet
237.909179688 605 m 0
 394.149414062 605 522.909179688 477.169921875 522.909179688 320.9296875 c 2
 522.909179688 279.0703125 l 2
 522.909179688 122.830078125 394.149414062 -5 237.909179688 -5 c 0
 166.469726562 -5 99.1298828125 3.7099609375 40 19.1103515625 c 1
 48.08984375 67 l 1
 103.799804688 53 168.669921875 45 237.909179688 45 c 0
 366.739257812 45 472.909179688 151.879882812 472.909179688 282.5 c 2
 472.909179688 317.5 l 2
 472.909179688 448.120117188 366.739257812 555 237.909179688 555 c 0
 168.669921875 555 103.809570312 547 48.08984375 533 c 1
 40 580.889648438 l 1
 99.1298828125 596.290039062 166.469726562 605 237.909179688 605 c 0
EndSplineSet
EndChar

StartChar: uni05DC
Encoding: 236 1500 13
Width: 578
VWidth: 0
Flags: HW
LayerCount: 2
Fore
SplineSet
268.599609375 0 m 1
 466.830078125 550 l 1
 40 550 l 1
 40 713.690429688 l 1
 90 713.690429688 l 1
 90 600 l 1
 538 600 l 1
 321.75 0 l 1
 268.599609375 0 l 1
EndSplineSet
EndChar

StartChar: uni05DD
Encoding: 237 1501 14
Width: 653
VWidth: 0
Flags: HW
LayerCount: 2
Fore
SplineSet
613 0 m 1
 40 -0.759765625 l 1
 40 600 l 1
 359.360351562 600 l 2
 501.58984375 600 613 491.9296875 613 354 c 2
 613 0 l 1
90 50 m 1
 563 50 l 1
 563 354 l 2
 563 463.9296875 473.549804688 550 359.360351562 550 c 2
 90 550 l 1
 90 50 l 1
EndSplineSet
EndChar

StartChar: uni05DE
Encoding: 238 1502 15
Width: 716
VWidth: 0
Flags: HW
LayerCount: 2
Fore
SplineSet
391.580078125 605 m 1
 547.8203125 605 676.580078125 477.169921875 676.580078125 320.9296875 c 2
 676.580078125 279.0703125 l 2
 676.580078125 122.509765625 549.900390625 -4.6796875 393.33984375 -5 c 0
 365.23046875 -5.0595703125 337.75 -3.75 311.150390625 -1.23046875 c 1
 315.849609375 48.26953125 l 1
 340.3203125 46.1298828125 365.639648438 45 391.580078125 45 c 0
 520.41015625 45 626.580078125 151.879882812 626.580078125 282.5 c 2
 626.580078125 317.5 l 2
 626.580078125 448.120117188 520.41015625 555 391.580078125 555 c 1
 391.580078125 555 l 1
 338.801757812 554.999023438 260.330078125 531.232421875 216.419921875 501.950195312 c 2
 195.059570312 487.709960938 l 1
 144.400390625 -0.759765625 l 1
 94.099609375 -0.759765625 l 1
 144.379882812 487.709960938 l 1
 40 569.849609375 l 1
 71.7998046875 608.4296875 l 1
 171.23046875 531.919921875 l 1
 188.669921875 543.549804688 l 2
 239.537109375 577.470703125 330.439453125 605 391.579101562 605 c 0
 391.579101562 605 391.580078125 605 391.580078125 605 c 1
 391.580078125 605 l 1
EndSplineSet
EndChar

StartChar: uni05DF
Encoding: 239 1503 16
Width: 130
VWidth: 0
Flags: HW
LayerCount: 2
Fore
SplineSet
40 -113.690429688 m 1
 40 600 l 1
 90 600 l 1
 90 -113.690429688 l 1
 40 -113.690429688 l 1
EndSplineSet
EndChar

StartChar: uni05E0
Encoding: 240 1504 17
Width: 400
VWidth: 0
Flags: HW
LayerCount: 2
Fore
SplineSet
101.560546875 0 m 2
 40 0 l 1
 40 50 l 1
 101.560546875 50 l 2
 217.040039062 50 310.990234375 144 310.990234375 259.4296875 c 2
 310.990234375 550.4296875 l 1
 112.700195312 550.4296875 l 1
 112.700195312 600.4296875 l 1
 360.990234375 600.4296875 l 1
 360.990234375 259.4296875 l 2
 360.990234375 190.4296875 333.930664062 125.3203125 284.80078125 76.1904296875 c 0
 235.670898438 27.0595703125 170.600585938 0 101.560546875 0 c 2
EndSplineSet
EndChar

StartChar: uni05E1
Encoding: 241 1505 18
Width: 650
VWidth: 0
Flags: HW
LayerCount: 2
Fore
SplineSet
325 605 m 0
 481.240234375 605 610 477.169921875 610 320.9296875 c 2
 610 279.0703125 l 2
 610 122.830078125 481.240234375 -5 325 -5 c 0
 168.759765625 -5 40 122.830078125 40 279.0703125 c 2
 40 320.9296875 l 2
 40 477.169921875 168.759765625 605 325 605 c 0
560 282.5 m 2
 560 317.5 l 2
 560 448.120117188 453.830078125 555 325 555 c 0
 196.169921875 555 90 448.120117188 90 317.5 c 2
 90 282.5 l 2
 90 151.879882812 196.169921875 45 325 45 c 0
 453.830078125 45 560 151.879882812 560 282.5 c 2
EndSplineSet
EndChar

StartChar: uni05E2
Encoding: 242 1506 19
Width: 624
VWidth: 0
Flags: HW
LayerCount: 2
Fore
SplineSet
534.0703125 600 m 1
 584.379882812 600 l 1
 571.919921875 489.740234375 543.379882812 388.059570312 499.379882812 297.33984375 c 0
 460.669921875 217.51953125 410.020507812 146.01953125 348.8203125 84.8203125 c 0
 244.219726562 -19.7802734375 145.629882812 -57.8095703125 141.490234375 -59.3798828125 c 1
 132.640625 -36 l 1
 123.759765625 -12.6298828125 l 2
 124.459960938 -12.3603515625 178.209960938 8.58984375 246.459960938 61.240234375 c 1
 40 600 l 1
 93.5400390625 600 l 1
 287.030273438 95.08984375 l 1
 296.36328125 103.456054688 305.75390625 112.399414062 315.200195312 121.919921875 c 0
 400.400390625 207.709960938 505.390625 359.16015625 534.0703125 600 c 1
EndSplineSet
EndChar

StartChar: uni05E3
Encoding: 243 1507 20
Width: 598
VWidth: 0
Flags: HW
LayerCount: 2
Fore
SplineSet
558.80078125 -113.690429688 m 1
 508.80078125 -113.690429688 l 1
 508.80078125 328.5703125 l 2
 508.80078125 444 414.850585938 538 299.400390625 538 c 2
 237 538 l 2
 155.940429688 538 90 472.059570312 90 391 c 0
 90 309.940429688 155.940429688 244 237 244 c 2
 282 244 l 1
 282 194 l 1
 237 194 l 2
 128.256835938 194 40 282.255859375 40 391 c 0
 40 499.744140625 128.256835938 588 237 588 c 2
 299.400390625 588 l 2
 368.400390625 588 433.440429688 560.940429688 482.620117188 511.809570312 c 0
 531.80078125 462.6796875 558.80078125 397.5703125 558.80078125 328.5703125 c 2
 558.80078125 -113.690429688 l 1
EndSplineSet
EndChar

StartChar: uni05E4
Encoding: 244 1508 21
Width: 639
VWidth: 0
Flags: HW
LayerCount: 2
Fore
SplineSet
314.875976562 600 m 2
 471.116210938 600 599.875976562 472.169921875 599.875976562 315.9296875 c 2
 599.875976562 279.0703125 l 2
 599.875976562 122.830078125 471.116210938 -5 314.875976562 -5 c 0
 243.436523438 -5 176.095703125 3.7099609375 116.99609375 19.1103515625 c 1
 125.055664062 67 l 1
 180.765625 53 245.635742188 45 314.875976562 45 c 0
 443.706054688 45 549.875976562 151.879882812 549.875976562 282.5 c 2
 549.875976562 312.5 l 2
 549.875976562 443.120117188 443.706054688 550 314.875976562 550 c 2
 237.116210938 550 l 2
 156.055664062 550 90.1162109375 484.049804688 90.1162109375 403 c 0
 90.1162109375 326.5 148.845703125 263.469726562 223.5859375 256.620117188 c 1
 212.416015625 207.540039062 l 1
 117.2421875 219.510742188 40 307.076171875 40 403 c 0
 40 511.744140625 128.255859375 600 237 600 c 0
 237.032226562 600 237.083984375 600 237.116210938 600 c 2
 314.875976562 600 l 2
EndSplineSet
EndChar

StartChar: uni05E5
Encoding: 245 1509 22
Width: 597
VWidth: 0
Flags: HW
LayerCount: 2
Fore
SplineSet
557.83984375 600 m 1
 545.360351562 489.740234375 516.8203125 388.059570312 472.790039062 297.33984375 c 0
 435.719726562 220.889648438 387.6796875 152.080078125 329.919921875 92.6396484375 c 1
 425.459960938 -113.690429688 l 1
 370.370117188 -113.690429688 l 1
 40 600 l 1
 95.099609375 600 l 1
 307.330078125 141.509765625 l 1
 388.5703125 230 480.919921875 376.51953125 507.509765625 600 c 1
 557.83984375 600 l 1
EndSplineSet
EndChar

StartChar: uni05E6
Encoding: 246 1510 23
Width: 628
VWidth: 0
Flags: HW
LayerCount: 2
Fore
SplineSet
548.66015625 49.9404296875 m 1
 548.66015625 0 l 1
 59.73046875 0 l 1
 59.73046875 50 l 1
 484.330078125 50 l 1
 40 600 l 1
 104.26953125 600 l 1
 405.669921875 226.940429688 l 1
 465.0703125 315.370117188 519.290039062 437.26953125 538.669921875 600 c 1
 588.990234375 600 l 1
 576.51953125 489.740234375 547.990234375 388.059570312 503.990234375 297.33984375 c 0
 488.427734375 265.1953125 459.133789062 215.390625 438.599609375 186.169921875 c 1
 548.66015625 49.9404296875 l 1
EndSplineSet
EndChar

StartChar: uni05E7
Encoding: 247 1511 24
Width: 628
VWidth: 0
Flags: HW
LayerCount: 2
Fore
SplineSet
66.4599609375 -113.690429688 m 1
 66.4599609375 345.240234375 l 1
 116.459960938 345.240234375 l 1
 116.459960938 -113.690429688 l 1
 66.4599609375 -113.690429688 l 1
40 600 m 1
 588.66015625 600 l 1
 372.41015625 0 l 1
 319.259765625 0 l 1
 517.490234375 550 l 1
 40 550 l 1
 40 600 l 1
EndSplineSet
EndChar

StartChar: uni05E8
Encoding: 248 1512 25
Width: 558
VWidth: 0
Flags: HW
LayerCount: 2
Fore
SplineSet
518.19921875 0 m 1
 468.19921875 0 l 1
 468.19921875 340.5703125 l 2
 468.19921875 456 374.25 550 258.76953125 550 c 2
 40 550 l 1
 40 600 l 1
 258.76953125 600 l 2
 327.76953125 600 392.889648438 572.940429688 442.01953125 523.809570312 c 0
 491.149414062 474.6796875 518.19921875 409.610351562 518.19921875 340.5703125 c 2
 518.19921875 0 l 1
EndSplineSet
EndChar

StartChar: uni05E9
Encoding: 249 1513 26
Width: 670
VWidth: 0
Flags: HW
LayerCount: 2
Fore
SplineSet
384.169921875 600 m 1
 384.169921875 475.75 359.870117188 355.25 311.950195312 241.860351562 c 1
 265.889648438 261.3203125 l 1
 311.169921875 368.530273438 334.169921875 482.48046875 334.169921875 600 c 1
 384.169921875 600 l 1
580.33984375 600 m 1
 630.33984375 600 l 1
 630.33984375 276.51953125 l 2
 630.33984375 121.459960938 505.080078125 0 345.169921875 0 c 2
 40 0 l 1
 40 600 l 1
 90 600 l 1
 90 50 l 1
 345.169921875 50 l 2
 477.040039062 50 580.33984375 149.5 580.33984375 276.51953125 c 2
 580.33984375 600 l 1
EndSplineSet
EndChar

StartChar: uni05EA
Encoding: 250 1514 27
Width: 742
VWidth: 0
Flags: HW
LayerCount: 2
Fore
SplineSet
448.379882812 599.759765625 m 2
 590.639648438 599.759765625 702.049804688 491.690429688 702.01953125 353.759765625 c 2
 702.01953125 -0.240234375 l 1
 652.01953125 -0.240234375 l 1
 652.01953125 353.759765625 l 2
 652.01953125 463.650390625 562.5703125 549.759765625 448.379882812 549.759765625 c 2
 224.799804688 549.759765625 l 1
 224.799804688 184.759765625 l 2
 224.799804688 82.8603515625 141.899414062 -0.0400390625 40 -0.0400390625 c 1
 40 49.9599609375 l 1
 114.330078125 49.9599609375 174.799804688 110.4296875 174.799804688 184.759765625 c 2
 174.799804688 549.759765625 l 1
 88.4794921875 549.759765625 l 1
 88.4794921875 599.759765625 l 1
 448.379882812 599.759765625 l 2
EndSplineSet
EndChar

StartChar: a
Encoding: 97 97 29
Width: 650
VWidth: 0
Flags: HW
LayerCount: 2
Fore
SplineSet
560 600 m 1
 610 600 l 1
 610 0 l 1
 560 0 l 1
 560 119.0703125 l 1
 508.419921875 44.2998046875 422 -5 325 -5 c 0
 168.759765625 -5 40 122.830078125 40 279.0703125 c 2
 40 320.9296875 l 2
 40 477.169921875 168.759765625 605 325 605 c 0
 422 605 508.419921875 555.700195312 560 480.9296875 c 1
 560 600 l 1
325 45 m 0
 453.830078125 45 560 151.879882812 560 282.5 c 2
 560 317.5 l 2
 560 448.120117188 453.830078125 555 325 555 c 0
 196.169921875 555 90 448.120117188 90 317.5 c 2
 90 282.5 l 2
 90 151.879882812 196.169921875 45 325 45 c 0
EndSplineSet
EndChar

StartChar: b
Encoding: 98 98 30
Width: 650
VWidth: 0
Flags: HW
LayerCount: 2
Fore
SplineSet
325 605 m 0
 481.240234375 605 610 477.169921875 610 320.9296875 c 2
 610 279.0703125 l 2
 610 122.830078125 481.240234375 -5 325 -5 c 0
 228 -5 141.580078125 44.2998046875 90 119.0703125 c 1
 90 0 l 1
 40 0 l 1
 40 800 l 1
 90 800 l 1
 90 480.9296875 l 1
 141.580078125 555.700195312 228 605 325 605 c 0
560 282.5 m 2
 560 317.5 l 2
 560 448.120117188 453.830078125 555 325 555 c 0
 196.169921875 555 90 448.120117188 90 317.5 c 2
 90 282.5 l 2
 90 151.879882812 196.169921875 45 325 45 c 0
 453.830078125 45 560 151.879882812 560 282.5 c 2
EndSplineSet
EndChar

StartChar: c
Encoding: 99 99 31
Width: 594
VWidth: 0
Flags: HW
LayerCount: 2
Fore
SplineSet
518.25 148 m 1
 554.639648438 111.5703125 l 1
 502.559570312 41 418.73046875 -5 325 -5 c 0
 168.759765625 -5 40 122.830078125 40 279.0703125 c 2
 40 320.9296875 l 2
 40 477.169921875 168.759765625 605 325 605 c 0
 418.73046875 605 502.559570312 559 554.639648438 488.400390625 c 1
 518.25 452 l 1
 475.66015625 514.120117188 404.669921875 555 325 555 c 0
 196.169921875 555 90 448.120117188 90 317.5 c 2
 90 282.5 l 2
 90 151.879882812 196.169921875 45 325 45 c 0
 404.669921875 45 475.66015625 85.8798828125 518.25 148 c 1
EndSplineSet
EndChar

StartChar: d
Encoding: 100 100 32
Width: 650
VWidth: 0
Flags: HW
LayerCount: 2
Fore
SplineSet
560 800 m 1
 610 800 l 1
 610 0 l 1
 560 0 l 1
 560 119.0703125 l 1
 508.419921875 44.2998046875 422 -5 325 -5 c 0
 168.759765625 -5 40 122.830078125 40 279.0703125 c 2
 40 320.9296875 l 2
 40 477.169921875 168.759765625 605 325 605 c 0
 422 605 508.419921875 555.700195312 560 480.9296875 c 1
 560 800 l 1
325 45 m 0
 453.830078125 45 560 151.879882812 560 282.5 c 2
 560 317.5 l 2
 560 448.120117188 453.830078125 555 325 555 c 0
 196.169921875 555 90 448.120117188 90 317.5 c 2
 90 282.5 l 2
 90 151.879882812 196.169921875 45 325 45 c 0
EndSplineSet
EndChar

StartChar: e
Encoding: 101 101 33
Width: 650
VWidth: 0
Flags: HW
LayerCount: 2
Fore
SplineSet
610 320.9296875 m 2
 610 279.120117188 l 1
 609.26953125 279.120117188 l 1
 610 275 l 1
 90.1298828125 275 l 1
 94.099609375 147.809570312 198.650390625 45 325 45 c 0
 404.669921875 45 475.66015625 85.8798828125 518.25 148 c 1
 554.639648438 111.5703125 l 1
 502.559570312 41 418.73046875 -5 325 -5 c 0
 168.759765625 -5 40 122.830078125 40 279.0703125 c 2
 40 320.9296875 l 2
 40 477.169921875 168.759765625 605 325 605 c 0
 481.240234375 605 610 477.169921875 610 320.9296875 c 2
90.1298828125 325 m 1
 559.870117188 325 l 1
 555.900390625 452.190429688 451.349609375 555 325 555 c 0
 198.650390625 555 94.1298828125 452.190429688 90.1298828125 325 c 1
EndSplineSet
EndChar

StartChar: f
Encoding: 102 102 34
Width: 406
VWidth: 0
Flags: HW
LayerCount: 2
Fore
SplineSet
339.139648438 912 m 2
 366.139648438 912 l 1
 366.139648438 862 l 1
 339.139648438 862 l 2
 269.665039062 861.922851562 213.216796875 805.474609375 213.139648438 736 c 2
 213.139648438 600.309570312 l 1
 336.279296875 600.309570312 l 1
 336.279296875 550.309570312 l 1
 213.139648438 550.309570312 l 1
 213.139648438 0 l 1
 163.139648438 0 l 1
 163.139648438 550.309570312 l 1
 40 550.309570312 l 1
 40 600.309570312 l 1
 163.139648438 600.309570312 l 1
 163.139648438 736 l 2
 163.139648438 833 242.139648438 912 339.139648438 912 c 2
EndSplineSet
EndChar

StartChar: g
Encoding: 103 103 35
Width: 650
VWidth: 0
Flags: HW
LayerCount: 2
Fore
SplineSet
560 602 m 5
 610 602 l 5
 610 21.0703125 l 6
 610 -135.169921875 481.240234375 -263 325 -263 c 4
 231.26953125 -263 147.440429688 -217 95.3603515625 -146.400390625 c 5
 131.75 -110 l 5
 174.33984375 -172.120117188 245.330078125 -213 325 -213 c 4
 451.349609375 -213 555.900390625 -110.190429688 559.870117188 17 c 5
 560 17 l 5
 560 121.0703125 l 5
 508.419921875 46.2998046875 422 -3 325 -3 c 4
 168.759765625 -3 40 124.830078125 40 281.0703125 c 6
 40 322.9296875 l 6
 40 479.169921875 168.759765625 607 325 607 c 4
 422 607 508.419921875 557.700195312 560 482.9296875 c 5
 560 602 l 5
325 47 m 4
 453.830078125 47 560 153.870117188 560 284.5 c 6
 560 319.5 l 6
 560 450.120117188 453.830078125 557 325 557 c 4
 196.169921875 557 90 450.120117188 90 319.5 c 6
 90 284.5 l 6
 90 153.870117188 196.169921875 47 325 47 c 4
EndSplineSet
EndChar

StartChar: h
Encoding: 104 104 36
Width: 650
VWidth: 0
Flags: HW
LayerCount: 2
Fore
SplineSet
325 605 m 0
 481.240234375 605 610 477.169921875 610 320.9296875 c 2
 610 0 l 1
 560 0 l 1
 560 317.5 l 2
 560 448.120117188 453.830078125 555 325 555 c 0
 196.169921875 555 90 448.120117188 90 317.5 c 2
 90 0 l 1
 40 0 l 1
 40 800 l 1
 90 800 l 1
 90 480.9296875 l 1
 141.580078125 555.700195312 228 605 325 605 c 0
EndSplineSet
EndChar

StartChar: i
Encoding: 105 105 37
Width: 140
VWidth: 0
Flags: HW
LayerCount: 2
Fore
SplineSet
40 770 m 0
 40 786.568359375 53.431640625 800 70 800 c 0
 86.568359375 800 100 786.568359375 100 770 c 0
 100 753.431640625 86.568359375 740 70 740 c 0
 53.431640625 740 40 753.431640625 40 770 c 0
45 0 m 1
 45 600 l 1
 95 600 l 1
 95 0 l 1
 45 0 l 1
EndSplineSet
EndChar

StartChar: j
Encoding: 106 106 38
Width: 288
VWidth: 0
Flags: HW
LayerCount: 2
Fore
SplineSet
193 600 m 1
 243 600 l 1
 243 -24 l 2
 243 -121 164.049804688 -200 67 -200 c 2
 40 -200 l 1
 40 -150 l 1
 67 -150 l 2
 136.474609375 -149.922851562 192.922851562 -93.474609375 193 -24 c 2
 193 600 l 1
188 770 m 0
 188 786.568359375 201.431640625 800 218 800 c 0
 234.568359375 800 248 786.568359375 248 770 c 0
 248 753.431640625 234.568359375 740 218 740 c 0
 201.431640625 740 188 753.431640625 188 770 c 0
EndSplineSet
EndChar

StartChar: k
Encoding: 107 107 39
Width: 590
VWidth: 0
Flags: HW
LayerCount: 2
Fore
SplineSet
483.770507812 0 m 1
 236.430664062 279.330078125 l 1
 90 129.26953125 l 1
 90 0 l 1
 40 0 l 1
 40 800 l 1
 90 800 l 1
 90 200.860351562 l 1
 479.48046875 600 l 1
 549.340820312 600 l 1
 271.440429688 315.209960938 l 1
 550.560546875 0 l 1
 483.770507812 0 l 1
EndSplineSet
EndChar

StartChar: l
Encoding: 108 108 40
Width: 130
VWidth: 0
Flags: HW
LayerCount: 2
Fore
SplineSet
40 0 m 1
 40 800 l 1
 90 800 l 1
 90 0 l 1
 40 0 l 1
EndSplineSet
EndChar

StartChar: m
Encoding: 109 109 41
Width: 1022
VWidth: 0
Flags: HW
LayerCount: 2
Fore
SplineSet
734 605 m 0
 870 605 982 493.759765625 982 357.809570312 c 2
 982 0 l 1
 932 0 l 1
 932 350.469726562 l 2
 932 459 842.540039062 547.8203125 734 547.8203125 c 0
 625.459960938 547.8203125 536 459 536 350.469726562 c 2
 536 0 l 1
 486 0 l 1
 486 350.469726562 l 2
 486 459 396.540039062 547.8203125 288 547.8203125 c 0
 179.459960938 547.8203125 90 459 90 350.469726562 c 2
 90 0 l 1
 40 0 l 1
 40 600 l 1
 90 600 l 1
 90 506 l 1
 135.440429688 566 207.530273438 605 288 605 c 0
 385.419921875 605 470.559570312 547.879882812 511 465.469726562 c 1
 551.440429688 547.879882812 636.580078125 605 734 605 c 0
EndSplineSet
EndChar

StartChar: n
Encoding: 110 110 42
Width: 650
VWidth: 0
Flags: HW
LayerCount: 2
Fore
SplineSet
325 605 m 0
 481.240234375 605 610 477.169921875 610 320.9296875 c 2
 610 0 l 1
 560 0 l 1
 560 317.5 l 2
 560 448.120117188 453.830078125 555 325 555 c 0
 196.169921875 555 90 448.120117188 90 317.5 c 2
 90 0 l 1
 40 0 l 1
 40 600 l 1
 90 600 l 1
 90 480.9296875 l 1
 141.580078125 555.700195312 228 605 325 605 c 0
EndSplineSet
EndChar

StartChar: o
Encoding: 111 111 43
Width: 650
VWidth: 0
Flags: HW
LayerCount: 2
Fore
SplineSet
325 605 m 0
 481.240234375 605 610 477.169921875 610 320.9296875 c 2
 610 279.0703125 l 2
 610 122.830078125 481.240234375 -5 325 -5 c 0
 168.759765625 -5 40 122.830078125 40 279.0703125 c 2
 40 320.9296875 l 2
 40 477.169921875 168.759765625 605 325 605 c 0
560 282.5 m 2
 560 317.5 l 2
 560 448.120117188 453.830078125 555 325 555 c 0
 196.169921875 555 90 448.120117188 90 317.5 c 2
 90 282.5 l 2
 90 151.879882812 196.169921875 45 325 45 c 0
 453.830078125 45 560 151.879882812 560 282.5 c 2
EndSplineSet
EndChar

StartChar: p
Encoding: 112 112 44
Width: 650
VWidth: 0
Flags: HW
LayerCount: 2
Fore
SplineSet
325 605 m 0
 481.240234375 605 610 477.169921875 610 320.9296875 c 2
 610 279.0703125 l 2
 610 122.830078125 481.240234375 -5 325 -5 c 0
 228 -5 141.580078125 44.2998046875 90 119.0703125 c 1
 90 -200 l 1
 40 -200 l 1
 40 600 l 1
 90 600 l 1
 90 480.9296875 l 1
 141.580078125 555.700195312 228 605 325 605 c 0
560 282.5 m 2
 560 317.5 l 2
 560 448.120117188 453.830078125 555 325 555 c 0
 196.169921875 555 90 448.120117188 90 317.5 c 2
 90 282.5 l 2
 90 151.879882812 196.169921875 45 325 45 c 0
 453.830078125 45 560 151.879882812 560 282.5 c 2
EndSplineSet
EndChar

StartChar: q
Encoding: 113 113 45
Width: 650
VWidth: 0
Flags: HW
LayerCount: 2
Fore
SplineSet
560 600 m 1
 610 600 l 1
 610 -200 l 1
 560 -200 l 1
 560 119.0703125 l 1
 508.419921875 44.2998046875 422 -5 325 -5 c 0
 168.759765625 -5 40 122.830078125 40 279.0703125 c 2
 40 320.9296875 l 2
 40 477.169921875 168.759765625 605 325 605 c 0
 422 605 508.419921875 555.700195312 560 480.9296875 c 1
 560 600 l 1
325 45 m 0
 453.830078125 45 560 151.879882812 560 282.5 c 2
 560 317.5 l 2
 560 448.120117188 453.830078125 555 325 555 c 0
 196.169921875 555 90 448.120117188 90 317.5 c 2
 90 282.5 l 2
 90 151.879882812 196.169921875 45 325 45 c 0
EndSplineSet
EndChar

StartChar: r
Encoding: 114 114 46
Width: 414
VWidth: 0
Flags: HW
LayerCount: 2
Fore
SplineSet
325 605 m 2
 374 605 l 1
 374 555 l 1
 325 555 l 2
 196.169921875 555 90 448.120117188 90 317.5 c 2
 90 0 l 1
 40 0 l 1
 40 600 l 1
 90 600 l 1
 90 480.9296875 l 1
 141.580078125 555.700195312 228 605 325 605 c 2
EndSplineSet
EndChar

StartChar: s
Encoding: 115 115 47
Width: 594
VWidth: 0
Flags: HW
LayerCount: 2
Fore
SplineSet
547.942382812 424.440429688 m 1
 504.202148438 413.75 l 1
 504.202148438 413.75 511.08203125 555.219726562 308.58203125 555.58984375 c 0
 83.751953125 556 90.01171875 429.799804688 90.01171875 429.799804688 c 1
 91.08203125 259 567.452148438 406.299804688 553.872070312 164.690429688 c 1
 553.872070312 164.690429688 543.08203125 -20 279.971679688 -4.1904296875 c 0
 30.421875 10.8095703125 46.2216796875 176.200195312 46.2216796875 176.200195312 c 1
 90.01171875 186.889648438 l 1
 90.01171875 186.889648438 90.08203125 43 291.58203125 43.0498046875 c 0
 515.751953125 43.0498046875 504.202148438 170.830078125 504.202148438 170.830078125 c 1
 504.08203125 343 26.7421875 195 40.2822265625 435.940429688 c 1
 40.2822265625 435.940429688 49.751953125 621.330078125 314.192382812 604.8203125 c 0
 563.711914062 589.240234375 547.942382812 424.440429688 547.942382812 424.440429688 c 1
EndSplineSet
EndChar

StartChar: t
Encoding: 116 116 48
Width: 406
VWidth: 0
Flags: HW
LayerCount: 2
Fore
SplineSet
339.139648438 50 m 2
 366.139648438 50 l 1
 366.139648438 0 l 1
 339.139648438 0 l 2
 242.139648438 0 163.139648438 79 163.139648438 176 c 2
 163.139648438 550 l 1
 40 550 l 1
 40 600 l 1
 163.139648438 600 l 1
 163.139648438 800 l 1
 213.139648438 800 l 1
 213.139648438 600 l 1
 336.279296875 600 l 1
 336.279296875 550 l 1
 213.139648438 550 l 1
 213.139648438 176 l 2
 213.216796875 106.525390625 269.665039062 50.0771484375 339.139648438 50 c 2
EndSplineSet
EndChar

StartChar: u
Encoding: 117 117 49
Width: 650
VWidth: 0
Flags: HW
LayerCount: 2
Fore
SplineSet
560 600 m 5
 610 600 l 5
 610 0 l 5
 560 0 l 5
 560 119.0703125 l 5
 508.419921875 44.2998046875 422 -5 325 -5 c 4
 168.759765625 -5 40 122.830078125 40 279.0703125 c 6
 40 600 l 5
 90 600 l 5
 90 282.5 l 6
 90 151.879882812 196.169921875 45 325 45 c 4
 453.830078125 45 560 151.879882812 560 282.5 c 6
 560 600 l 5
EndSplineSet
EndChar

StartChar: v
Encoding: 118 118 50
Width: 612
VWidth: 0
Flags: HW
LayerCount: 2
Fore
SplineSet
519.0703125 600 m 1
 572.91015625 600 l 1
 333.370117188 0 l 1
 333.370117188 0 l 1
 279.540039062 0 l 1
 279.530273438 0 l 1
 40 600 l 1
 93.8408203125 600 l 1
 306.450195312 67.4296875 l 1
 519.0703125 600 l 1
EndSplineSet
EndChar

StartChar: w
Encoding: 119 119 51
Width: 887
VWidth: 0
Flags: HW
LayerCount: 2
Fore
SplineSet
795.05078125 600 m 1
 847.4609375 600 l 1
 658.700195312 0 l 1
 606.290039062 0 l 1
 443.73046875 516.700195312 l 1
 281.170898438 0 l 1
 228.760742188 0 l 1
 40 600 l 1
 92.41015625 600 l 1
 254.970703125 83.2998046875 l 1
 417.520507812 600 l 1
 417.530273438 600 l 1
 469.940429688 600 l 1
 469.940429688 600 l 1
 632.490234375 83.2998046875 l 1
 795.05078125 600 l 1
EndSplineSet
EndChar

StartChar: x
Encoding: 120 120 52
Width: 631
VWidth: 0
Flags: HW
LayerCount: 2
Fore
SplineSet
526.620117188 600 m 1
 591 600 l 1
 347.690429688 300 l 1
 591 0 l 1
 526.620117188 0 l 1
 315.5 260.309570312 l 1
 104.379882812 0 l 1
 40 0 l 1
 283.309570312 300 l 1
 40 600 l 1
 104.379882812 600 l 1
 315.5 339.690429688 l 1
 526.620117188 600 l 1
EndSplineSet
EndChar

StartChar: y
Encoding: 121 121 53
Width: 653
VWidth: 0
Flags: HW
LayerCount: 2
Fore
SplineSet
559.209960938 600 m 1
 613.849609375 600 l 1
 307.950195312 -94.8798828125 l 2
 273.940429688 -172.150390625 190.76953125 -212.799804688 111.229492188 -196.33984375 c 1
 121.08984375 -147.33984375 l 1
 128.09375 -148.79296875 139.583007812 -149.97265625 146.735351562 -149.97265625 c 0
 192.124023438 -149.97265625 243.84765625 -116.27734375 262.190429688 -74.759765625 c 2
 299.610351562 10.240234375 l 1
 40 600 l 1
 94.6298828125 600 l 1
 326.919921875 72.2900390625 l 1
 559.209960938 600 l 1
EndSplineSet
EndChar

StartChar: z
Encoding: 122 122 54
Width: 580
VWidth: 0
Flags: HW
LayerCount: 2
Fore
SplineSet
540 600 m 1
 540 550 l 1
 104 50 l 1
 540 50 l 1
 540 0 l 1
 40 0 l 1
 40 50 l 1
 476 550 l 1
 40 550 l 1
 40 600 l 1
 540 600 l 1
EndSplineSet
EndChar

StartChar: exclam
Encoding: 33 33 55
Width: 140
VWidth: 0
Flags: HW
LayerCount: 2
Fore
SplineSet
40 30 m 0
 40 46.568359375 53.431640625 60 70 60 c 0
 86.568359375 60 100 46.568359375 100 30 c 0
 100 13.431640625 86.568359375 0 70 0 c 0
 53.431640625 0 40 13.431640625 40 30 c 0
45 200 m 1
 45 800 l 1
 95 800 l 1
 95 200 l 1
 45 200 l 1
EndSplineSet
EndChar

StartChar: parenleft
Encoding: 40 40 56
Width: 323
VWidth: 0
Flags: HW
LayerCount: 2
Fore
SplineSet
40.0205078125 320.870117188 m 5
 40 320.870117188 l 5
 40 483.599609375 l 6
 40 682.099609375 145.510742188 846.080078125 277.150390625 860 c 5
 283.5 824.33984375 l 5
 172.950195312 785.469726562 90.0205078125 645 90.0205078125 479 c 6
 90.0205078125 325.509765625 l 5
 90.0205078125 325.509765625 l 5
 90.4599609375 160 173.280273438 20.2802734375 283.490234375 -18.509765625 c 5
 277.150390625 -54.1298828125 l 5
 145.830078125 -40.2197265625 40.5205078125 123.009765625 40.0205078125 320.870117188 c 5
EndSplineSet
EndChar

StartChar: parenright
Encoding: 41 41 57
Width: 323
VWidth: 0
Flags: HW
LayerCount: 2
Fore
SplineSet
283.490234375 485 m 6
 283.490234375 322.290039062 l 6
 283.490234375 123.790039062 177.98046875 -40.1904296875 46.33984375 -54.1103515625 c 5
 40 -18.490234375 l 5
 150.549804688 20.3798828125 233.490234375 160.799804688 233.490234375 326.849609375 c 6
 233.490234375 480.379882812 l 5
 233.490234375 480.379882812 l 5
 233.009765625 645.83984375 150.259765625 785.610351562 40.009765625 824.379882812 c 5
 46.349609375 860 l 5
 177.6796875 846.120117188 282.990234375 682.879882812 283.490234375 485 c 6
EndSplineSet
EndChar

StartChar: less
Encoding: 60 60 58
Width: 422
VWidth: 0
Flags: HW
LayerCount: 2
Fore
SplineSet
40 300 m 1
 346.9296875 606.9296875 l 1
 382.279296875 571.5703125 l 1
 110.709960938 300 l 1
 382.279296875 28.4296875 l 1
 346.9296875 -6.9296875 l 1
 40 300 l 1
EndSplineSet
EndChar

StartChar: greater
Encoding: 62 62 59
Width: 422
VWidth: 0
Flags: HW
LayerCount: 2
Fore
SplineSet
382.279296875 300 m 1
 75.349609375 -6.9296875 l 1
 40 28.4296875 l 1
 311.569335938 300 l 1
 40 571.5703125 l 1
 75.349609375 606.9296875 l 1
 382.279296875 300 l 1
EndSplineSet
EndChar

StartChar: asciicircum
Encoding: 94 94 60
Width: 544
VWidth: 0
Flags: HW
LayerCount: 2
Fore
SplineSet
272.150390625 798 m 1
 504.30078125 565.849609375 l 1
 468.950195312 530.490234375 l 1
 272.150390625 727.290039062 l 1
 75.3505859375 530.490234375 l 1
 40 565.849609375 l 1
 272.150390625 798 l 1
EndSplineSet
EndChar

StartChar: underscore
Encoding: 95 95 61
Width: 539
VWidth: 0
Flags: HW
LayerCount: 2
Fore
SplineSet
40 0 m 1
 40 50 l 1
 499.470703125 50 l 1
 499.470703125 0 l 1
 40 0 l 1
EndSplineSet
EndChar

StartChar: hyphen
Encoding: 45 45 62
Width: 389
VWidth: 0
Flags: HW
LayerCount: 2
Fore
SplineSet
40 275 m 1
 40 325 l 1
 349 325 l 1
 349 275 l 1
 40 275 l 1
EndSplineSet
EndChar

StartChar: A
Encoding: 65 65 63
Width: 922
VWidth: 0
Flags: HW
LayerCount: 2
Fore
SplineSet
826.25 0 m 1
 686.41015625 284.58984375 l 1
 235.58984375 284.58984375 l 1
 95.7099609375 0 l 1
 40 0 l 1
 433.150390625 800 l 1
 488.849609375 800 l 1
 882 0 l 1
 826.25 0 l 1
260.16015625 334.58984375 m 1
 661.83984375 334.58984375 l 1
 461 743.309570312 l 1
 260.16015625 334.58984375 l 1
EndSplineSet
EndChar

StartChar: B
Encoding: 66 66 64
Width: 725
VWidth: 0
Flags: HW
LayerCount: 2
Fore
SplineSet
685.569335938 587.5 m 1
 685.569335938 587.479492188 685.569335938 587.447265625 685.569335938 587.426757812 c 0
 685.569335938 517.083007812 635.201171875 433.115234375 573.139648438 400 c 1
 635.201171875 366.884765625 685.569335938 282.916992188 685.569335938 212.573242188 c 0
 685.569335938 212.552734375 685.569335938 212.520507812 685.569335938 212.5 c 1
 685.569335938 212.5 l 1
 685.569335938 95.1396484375 590.439453125 0 473.069335938 0 c 2
 40 0 l 1
 40 800 l 1
 473.069335938 800 l 2
 590.439453125 800 685.569335938 704.860351562 685.569335938 587.5 c 1
 685.569335938 587.5 l 1
635.569335938 212.5 m 1
 635.569335938 302.200195312 562.76953125 375 473.069335938 375 c 2
 90 375 l 1
 90 50 l 1
 473.069335938 50 l 2
 562.76953125 50 635.569335938 122.799804688 635.569335938 212.5 c 1
 635.569335938 212.5 l 1
473.069335938 425 m 2
 562.76953125 425 635.569335938 497.799804688 635.569335938 587.5 c 1
 635.569335938 587.5 l 1
 635.569335938 677.200195312 562.76953125 750 473.069335938 750 c 2
 90 750 l 1
 90 425 l 1
 473.069335938 425 l 2
EndSplineSet
EndChar

StartChar: C
Encoding: 67 67 65
Width: 748
VWidth: 0
Flags: HW
LayerCount: 2
Fore
SplineSet
672.400390625 166.530273438 m 1
 708.419921875 130.509765625 l 1
 638.709960938 47.8095703125 534.330078125 -5 418.599609375 -5 c 0
 211 -5 40 164.809570312 40 372.360351562 c 2
 40 427.969726562 l 2
 40 635.51953125 211.049804688 805.330078125 418.599609375 805.330078125 c 0
 534.330078125 805.330078125 638.709960938 752.530273438 708.400390625 669.799804688 c 1
 672.400390625 633.799804688 l 1
 611.91015625 707.870117188 520.309570312 755.330078125 418.599609375 755.330078125 c 0
 238.459960938 755.330078125 90 606.48046875 90 424.540039062 c 2
 90 375.790039062 l 2
 90 193.860351562 238.459960938 45 418.599609375 45 c 0
 520.309570312 45 611.91015625 92.4599609375 672.400390625 166.530273438 c 1
EndSplineSet
EndChar

StartChar: D
Encoding: 68 68 66
Width: 801
VWidth: 0
Flags: HW
LayerCount: 2
Fore
SplineSet
382.599609375 800 m 2
 590.149414062 800 761.19921875 630.190429688 761.19921875 422.639648438 c 2
 761.19921875 377.360351562 l 2
 761.19921875 169.809570312 590.149414062 0 382.599609375 0 c 2
 40 0 l 1
 40 800 l 1
 382.599609375 800 l 2
711.19921875 380.190429688 m 2
 711.19921875 419.809570312 l 2
 711.19921875 601.41015625 563.869140625 750 385.099609375 750 c 2
 90 750 l 1
 90 50 l 1
 385.099609375 50 l 2
 563.869140625 50 711.19921875 198.58984375 711.19921875 380.190429688 c 2
EndSplineSet
EndChar

StartChar: E
Encoding: 69 69 67
Width: 703
VWidth: 0
Flags: HW
LayerCount: 2
Fore
SplineSet
663.5 750 m 1
 90 750 l 1
 90 334.58984375 l 1
 526.120117188 334.58984375 l 1
 526.120117188 284.58984375 l 1
 90 284.58984375 l 1
 90 50 l 1
 663.5 50 l 1
 663.5 0 l 1
 40 0 l 1
 40 800 l 1
 663.5 800 l 1
 663.5 750 l 1
EndSplineSet
EndChar

StartChar: F
Encoding: 70 70 68
Width: 703
VWidth: 0
Flags: HW
LayerCount: 2
Fore
SplineSet
663.5 750 m 1
 90 750 l 1
 90 334.58984375 l 1
 526.120117188 334.58984375 l 1
 526.120117188 284.58984375 l 1
 90 284.58984375 l 1
 90 0 l 1
 40 0 l 1
 40 800 l 1
 663.5 800 l 1
 663.5 750 l 1
EndSplineSet
EndChar

StartChar: G
Encoding: 71 71 69
Width: 837
VWidth: 0
Flags: HW
LayerCount: 2
Fore
SplineSet
418.599609375 425.169921875 m 1
 797.19921875 425.169921875 l 1
 797.19921875 372.360351562 l 2
 797.19921875 164.809570312 626.149414062 -5 418.599609375 -5 c 0
 211.049804688 -5 40 164.809570312 40 372.389648438 c 2
 40 428 l 2
 40 635.51953125 211.049804688 805.330078125 418.599609375 805.330078125 c 0
 534.330078125 805.330078125 638.719726562 752.530273438 708.399414062 669.799804688 c 1
 672.399414062 633.799804688 l 1
 611.909179688 707.870117188 520.309570312 755.330078125 418.599609375 755.330078125 c 0
 238.459960938 755.330078125 90 606.48046875 90 424.540039062 c 2
 90 375.790039062 l 2
 90 193.860351562 238.459960938 45 418.599609375 45 c 0
 598.529296875 45 746.849609375 193.51953125 747.189453125 375.169921875 c 1
 418.599609375 375.169921875 l 1
 418.599609375 425.169921875 l 1
EndSplineSet
EndChar

StartChar: H
Encoding: 72 72 70
Width: 779
VWidth: 0
Flags: HW
LayerCount: 2
Fore
SplineSet
689.48046875 800 m 1
 739.48046875 800 l 1
 739.48046875 0 l 1
 689.48046875 0 l 1
 689.48046875 284.58984375 l 1
 90 284.58984375 l 1
 90 0 l 1
 40 0 l 1
 40 800 l 1
 90 800 l 1
 90 334.58984375 l 1
 689.48046875 334.58984375 l 1
 689.48046875 800 l 1
EndSplineSet
EndChar

StartChar: I
Encoding: 73 73 71
Width: 130
VWidth: 0
Flags: HW
LayerCount: 2
Fore
SplineSet
40 0 m 1
 40 800 l 1
 90 800 l 1
 90 0 l 1
 40 0 l 1
EndSplineSet
EndChar

StartChar: J
Encoding: 74 74 72
Width: 396
VWidth: 0
Flags: HW
LayerCount: 2
Fore
SplineSet
128.459960938 800 m 1
 356.200195312 800 l 1
 356.200195312 244 l 2
 356.200195312 109.240234375 246.959960938 0 112.200195312 0 c 2
 40 0 l 1
 40 50 l 1
 112.200195312 50 l 2
 219.33984375 50 306.200195312 136.860351562 306.200195312 244 c 2
 306.200195312 750 l 1
 128.459960938 750 l 1
 128.459960938 800 l 1
EndSplineSet
EndChar

StartChar: K
Encoding: 75 75 73
Width: 655
VWidth: 0
Flags: HW
LayerCount: 2
Fore
SplineSet
615.30078125 800 m 1
 129.290039062 400 l 1
 615.30078125 0 l 1
 536.620117188 0 l 1
 90 367.580078125 l 1
 90 0 l 1
 40 0 l 1
 40 800 l 1
 90 800 l 1
 90 432.419921875 l 1
 536.620117188 800 l 1
 615.30078125 800 l 1
EndSplineSet
EndChar

StartChar: M
Encoding: 77 77 74
Width: 852
VWidth: 0
Flags: HW
LayerCount: 2
Fore
SplineSet
762.830078125 800 m 1
 812.8203125 800 l 1
 812.8203125 0 l 1
 762.8203125 0 l 1
 762.8203125 718.080078125 l 1
 457.969726562 322.5 l 1
 426.41015625 281.549804688 l 1
 394.850585938 322.5 l 1
 90 718.080078125 l 1
 90 0 l 1
 40 0 l 1
 40 800 l 1
 89.990234375 800 l 1
 90 800 l 1
 90 799.990234375 l 1
 426.41015625 363.459960938 l 1
 762.8203125 799.990234375 l 1
 762.8203125 800 l 1
 762.830078125 800 l 1
EndSplineSet
EndChar

StartChar: L
Encoding: 76 76 75
Width: 695
VWidth: 0
Flags: HW
LayerCount: 2
Fore
SplineSet
90 50 m 1
 655.5 50 l 1
 655.5 0 l 1
 40 0 l 1
 40 800 l 1
 90 800 l 1
 90 50 l 1
EndSplineSet
EndChar

StartChar: N
Encoding: 78 78 76
Width: 795
VWidth: 0
Flags: HW
LayerCount: 2
Fore
SplineSet
705.48046875 800.040039062 m 1
 755.48046875 800.040039062 l 1
 755.48046875 0.0400390625 l 1
 705.48046875 0.0400390625 l 1
 90 723.33984375 l 1
 90 0.0400390625 l 1
 40 0.0400390625 l 1
 40 800.040039062 l 1
 90 800.040039062 l 1
 705.48046875 76.740234375 l 1
 705.48046875 800.040039062 l 1
EndSplineSet
EndChar

StartChar: O
Encoding: 79 79 77
Width: 837
VWidth: 0
Flags: HW
LayerCount: 2
Fore
SplineSet
418.599609375 805.330078125 m 0
 626.149414062 805.330078125 797.19921875 635.51953125 797.19921875 428 c 2
 797.19921875 372.360351562 l 2
 797.19921875 164.809570312 626.149414062 -5 418.599609375 -5 c 0
 211.049804688 -5 40 164.809570312 40 372.389648438 c 2
 40 428 l 2
 40 635.51953125 211.049804688 805.330078125 418.599609375 805.330078125 c 0
747.19921875 375.790039062 m 2
 747.19921875 424.540039062 l 2
 747.19921875 606.48046875 598.739257812 755.330078125 418.599609375 755.330078125 c 0
 238.459960938 755.330078125 90 606.48046875 90 424.540039062 c 2
 90 375.790039062 l 2
 90 193.860351562 238.459960938 45 418.599609375 45 c 0
 598.739257812 45 747.19921875 193.860351562 747.19921875 375.790039062 c 2
EndSplineSet
EndChar

StartChar: P
Encoding: 80 80 78
Width: 725
VWidth: 0
Flags: HW
LayerCount: 2
Fore
SplineSet
40 800 m 1
 427.860351562 800 l 2
 570.190429688 800 685.560546875 684.620117188 685.560546875 542.290039062 c 1
 685.560546875 542.290039062 l 1
 685.560546875 399.969726562 570.190429688 284.58984375 427.860351562 284.58984375 c 2
 90 284.58984375 l 1
 90 0 l 1
 40 0 l 1
 40 800 l 1
90 334.58984375 m 1
 427.860351562 334.58984375 l 2
 542.560546875 334.58984375 635.560546875 427.580078125 635.560546875 542.290039062 c 1
 635.560546875 542.290039062 l 1
 635.560546875 657 542.5703125 750 427.860351562 750 c 2
 90 750 l 1
 90 334.58984375 l 1
EndSplineSet
EndChar

StartChar: Q
Encoding: 81 81 79
Width: 847
VWidth: 0
Flags: HW
LayerCount: 2
Fore
SplineSet
807.6796875 67 m 1
 807.6796875 14.0595703125 l 1
 765.236328125 27.341796875 703.66796875 61.9365234375 670.25 91.2802734375 c 1
 603.139648438 31.48046875 514.790039062 -5 418.599609375 -5 c 0
 211.049804688 -5 40 164.809570312 40 372.389648438 c 2
 40 428 l 2
 40 635.51953125 211.049804688 805.330078125 418.599609375 805.330078125 c 0
 626.149414062 805.330078125 797.19921875 635.51953125 797.19921875 428 c 2
 797.19921875 372.370117188 l 2
 797.19921875 279.0703125 762.649414062 193.419921875 705.759765625 127.370117188 c 1
 730.8515625 105.579101562 776.51171875 78.533203125 807.6796875 67 c 1
418.599609375 45 m 0
 500.069335938 45 575.049804688 75.4501953125 632.759765625 125.629882812 c 1
 575.059570312 175.8203125 500.069335938 206.280273438 418.599609375 206.280273438 c 0
 337.129882812 206.280273438 262.139648438 175.8203125 204.439453125 125.629882812 c 1
 262.149414062 75.4501953125 337.129882812 45 418.599609375 45 c 0
668.349609375 161.6796875 m 1
 711.87109375 212.760742188 747.196289062 308.682617188 747.19921875 375.790039062 c 2
 747.19921875 424.540039062 l 2
 747.19921875 606.48046875 598.739257812 755.330078125 418.599609375 755.330078125 c 0
 238.459960938 755.330078125 90 606.48046875 90 424.540039062 c 2
 90 375.790039062 l 2
 90.0029296875 308.682617188 125.328125 212.760742188 168.849609375 161.6796875 c 1
 235.729492188 220.48046875 323.319335938 256.280273438 418.599609375 256.280273438 c 0
 513.879882812 256.280273438 601.469726562 220.48046875 668.349609375 161.6796875 c 1
EndSplineSet
EndChar

StartChar: R
Encoding: 82 82 80
Width: 725
VWidth: 0
Flags: HW
LayerCount: 2
Fore
SplineSet
685.559570312 542.290039062 m 1
 685.559570312 413.629882812 591.26953125 307 468.01953125 287.709960938 c 1
 685.559570312 0 l 1
 622.879882812 0 l 1
 407.700195312 284.58984375 l 1
 90 284.58984375 l 1
 90 0 l 1
 40 0 l 1
 40 800 l 1
 427.860351562 800 l 2
 570.190429688 800 685.559570312 684.620117188 685.559570312 542.290039062 c 1
 685.559570312 542.290039062 l 1
427.860351562 334.58984375 m 2
 542.5703125 334.58984375 635.559570312 427.580078125 635.559570312 542.290039062 c 1
 635.559570312 542.290039062 l 1
 635.559570312 657 542.5703125 750 427.860351562 750 c 2
 90 750 l 1
 90 334.58984375 l 1
 427.860351562 334.58984375 l 2
EndSplineSet
EndChar

StartChar: S
Encoding: 83 83 81
Width: 789
VWidth: 0
Flags: HW
LayerCount: 2
Fore
SplineSet
394.639648438 -4.4501953125 m 0
 302.01953125 -4.4501953125 214.580078125 18 148.4296875 58.76953125 c 0
 115.169921875 79.26953125 88.8798828125 103.400390625 70.2998046875 130.490234375 c 0
 50.19921875 159.780273438 40 191.150390625 40 223.719726562 c 1
 90 223.719726562 l 1
 90 178.450195312 120.069335938 134.990234375 174.669921875 101.33984375 c 0
 233.040039062 65.33984375 311.159179688 45.5498046875 394.669921875 45.5498046875 c 0
 478.1796875 45.5498046875 556.26953125 65.3603515625 614.669921875 101.33984375 c 0
 669.26953125 134.990234375 699.33984375 178.450195312 699.33984375 223.719726562 c 0
 699.33984375 282.08984375 673.139648438 320.129882812 614.399414062 347.040039062 c 0
 558.040039062 372.83984375 479.529296875 384 403.639648438 394.780273438 c 0
 326.830078125 405.690429688 247.409179688 416.969726562 187.239257812 443.860351562 c 0
 152.659179688 459.3203125 126.989257812 478.530273438 108.76953125 502.610351562 c 0
 88.099609375 529.860351562 77.6396484375 563.209960938 77.6396484375 601.719726562 c 0
 77.6396484375 630.610351562 87.1796875 658.440429688 105.979492188 684.4296875 c 0
 122.979492188 707.969726562 146.979492188 728.969726562 177.149414062 746.849609375 c 0
 236.69921875 782.120117188 313.939453125 801.549804688 394.639648438 801.549804688 c 0
 475.33984375 801.549804688 552.580078125 782.120117188 612.129882812 746.849609375 c 0
 642.319335938 729 666.259765625 708 683.299804688 684.4296875 c 0
 702.099609375 658.4296875 711.639648438 630.610351562 711.639648438 601.719726562 c 1
 661.639648438 601.719726562 l 1
 661.639648438 638.919921875 635.009765625 675.190429688 586.639648438 703.830078125 c 0
 535.439453125 734.16015625 465.44921875 751.549804688 394.639648438 751.549804688 c 0
 323.830078125 751.549804688 253.830078125 734.16015625 202.639648438 703.830078125 c 0
 154.279296875 675.190429688 127.639648438 638.919921875 127.639648438 601.719726562 c 0
 127.639648438 548.830078125 152.299804688 514.219726562 207.639648438 489.509765625 c 0
 261.399414062 465.509765625 337.279296875 454.700195312 410.639648438 444.280273438 c 0
 490.099609375 432.990234375 572.26953125 421.280273438 635.1796875 392.5 c 0
 671.25 375.969726562 698.01953125 355.389648438 717.009765625 329.58984375 c 0
 738.4296875 300.5 749.290039062 264.879882812 749.290039062 223.719726562 c 0
 749.290039062 191.150390625 739.08984375 159.780273438 718.989257812 130.490234375 c 0
 700.409179688 103.400390625 674.120117188 79.26953125 640.859375 58.76953125 c 0
 574.69921875 18 487.259765625 -4.4501953125 394.639648438 -4.4501953125 c 0
EndSplineSet
EndChar

StartChar: T
Encoding: 84 84 82
Width: 779
VWidth: 0
Flags: HW
LayerCount: 2
Fore
SplineSet
739.48046875 800 m 1
 739.48046875 750 l 1
 413.740234375 750 l 1
 413.740234375 0 l 1
 363.740234375 0 l 1
 363.740234375 750 l 1
 40 750 l 1
 40 800 l 1
 739.48046875 800 l 1
EndSplineSet
EndChar

StartChar: U
Encoding: 85 85 83
Width: 735
VWidth: 0
Flags: HW
LayerCount: 2
Fore
SplineSet
645 800 m 1
 695 800 l 1
 695 327.5 l 2
 695 146.629882812 548.370117188 0 367.5 0 c 1
 367.5 0 l 1
 186.629882812 0 40 146.629882812 40 327.5 c 2
 40 800 l 1
 90 800 l 1
 90 327.5 l 2
 90 174.240234375 214.240234375 50 367.5 50 c 1
 367.5 50 l 1
 520.759765625 50 645 174.240234375 645 327.5 c 2
 645 800 l 1
EndSplineSet
EndChar

StartChar: V
Encoding: 86 86 84
Width: 921
VWidth: 0
Flags: HW
LayerCount: 2
Fore
SplineSet
826.209960938 800 m 1
 881.919921875 800 l 1
 488.8203125 0 l 1
 433.099609375 0 l 1
 40 800 l 1
 95.7099609375 800 l 1
 460.959960938 56.6904296875 l 1
 826.209960938 800 l 1
EndSplineSet
EndChar

StartChar: W
Encoding: 87 87 85
Width: 1073
VWidth: 0
Flags: HW
LayerCount: 2
Fore
SplineSet
982.170898438 800 m 1
 1033.88085938 800 l 1
 825.740234375 0 l 1
 773 0 l 1
 536.940429688 541.91015625 l 1
 300.880859375 0 l 1
 248.140625 0 l 1
 40 800 l 1
 91.7099609375 800 l 1
 280.420898438 76.41015625 l 1
 509.690429688 604.709960938 l 1
 564.190429688 604.709960938 l 1
 793.459960938 76.41015625 l 1
 982.170898438 800 l 1
EndSplineSet
EndChar

StartChar: X
Encoding: 88 88 86
Width: 818
VWidth: 0
Flags: HW
LayerCount: 2
Fore
SplineSet
441.879882812 400 m 1
 778.419921875 0 l 1
 713.080078125 0 l 1
 409.209960938 361.169921875 l 1
 105.33984375 0 l 1
 40 0 l 1
 376.540039062 400 l 1
 40 800 l 1
 105.33984375 800 l 1
 409.209960938 438.830078125 l 1
 713.080078125 800 l 1
 778.419921875 800 l 1
 441.879882812 400 l 1
EndSplineSet
EndChar

StartChar: Y
Encoding: 89 89 87
Width: 801
VWidth: 0
Flags: HW
LayerCount: 2
Fore
SplineSet
703.630859375 800 m 1
 761.9609375 800 l 1
 425.98046875 240.559570312 l 1
 425.98046875 0 l 1
 375.98046875 0 l 1
 375.98046875 240.559570312 l 1
 40 800 l 1
 98.330078125 800 l 1
 400.98046875 296.049804688 l 1
 703.630859375 800 l 1
EndSplineSet
EndChar

StartChar: Z
Encoding: 90 90 88
Width: 735
VWidth: 0
Flags: HW
LayerCount: 2
Fore
SplineSet
40 800 m 1
 695.0390625 800 l 1
 695.0390625 750.849609375 l 1
 695.0390625 750 l 1
 694.329101562 750 l 1
 106.01953125 50 l 1
 695.0390625 50 l 1
 695.0390625 0 l 1
 40 0 l 1
 40 49.150390625 l 1
 40 50 l 1
 40.7099609375 50 l 1
 629.01953125 750 l 1
 40 750 l 1
 40 800 l 1
EndSplineSet
EndChar

StartChar: quotedbl
Encoding: 34 34 89
Width: 275
VWidth: 0
Flags: HW
LayerCount: 2
Fore
SplineSet
97.4599609375 738 m 1
 148.0703125 738 l 1
 138.626953125 675.065429688 110.819335938 576.4296875 86 517.830078125 c 1
 40 537.299804688 l 1
 62.6162109375 590.758789062 88.3583984375 680.671875 97.4599609375 738 c 1
184.450195312 738 m 1
 235.060546875 738 l 1
 225.6328125 675.068359375 197.852539062 576.431640625 173.049804688 517.830078125 c 1
 126.990234375 537.299804688 l 1
 149.614257812 590.755859375 175.356445312 680.669921875 184.450195312 738 c 1
EndSplineSet
EndChar

StartChar: numbersign
Encoding: 35 35 90
Width: 651
VWidth: 0
Flags: HW
LayerCount: 2
Fore
SplineSet
611.51953125 404 m 1
 507.959960938 404 l 1
 459.759765625 196 l 1
 611.51953125 196 l 1
 611.51953125 146 l 1
 448.149414062 146 l 1
 414.319335938 0 l 1
 362.990234375 0 l 1
 396.830078125 146 l 1
 183.309570312 146 l 1
 149.479492188 0 l 1
 98.1494140625 0 l 1
 132 146 l 1
 40 146 l 1
 40 196 l 1
 143.559570312 196 l 1
 191.759765625 404 l 1
 40 404 l 1
 40 454 l 1
 203.370117188 454 l 1
 237.200195312 600 l 1
 288.529296875 600 l 1
 254.689453125 454 l 1
 468.209960938 454 l 1
 502.040039062 600 l 1
 553.359375 600 l 1
 519.51953125 454 l 1
 611.51953125 454 l 1
 611.51953125 404 l 1
408.41015625 196 m 1
 456.620117188 404 l 1
 243.109375 404 l 1
 194.899414062 196 l 1
 408.41015625 196 l 1
EndSplineSet
EndChar

StartChar: dollar
Encoding: 36 36 91
Width: 594
VWidth: 0
Flags: HW
LayerCount: 2
Fore
SplineSet
322.08203125 424.099609375 m 1
 441.421875 409.41015625 560.772460938 387 553.872070312 264.33984375 c 1
 553.872070312 264.33984375 544.251953125 99.8798828125 322.08203125 94.6298828125 c 1
 322.08203125 0 l 1
 272.08203125 0 l 1
 272.08203125 96 l 1
 30.76171875 114 46.2216796875 275.83984375 46.2216796875 275.83984375 c 1
 90.01171875 286.530273438 l 1
 90.01171875 286.530273438 90.08203125 152.16015625 272.08203125 143.16015625 c 1
 272.08203125 376.580078125 l 1
 152.751953125 391.240234375 33.421875 413.419921875 40.2822265625 535.580078125 c 1
 40.2822265625 535.580078125 48.7216796875 700.759765625 272.08203125 705.400390625 c 1
 272.08203125 800 l 1
 322.08203125 800 l 1
 322.08203125 703.91015625 l 1
 563.362304688 685.370117188 547.942382812 524.08984375 547.942382812 524.08984375 c 1
 504.202148438 513.400390625 l 1
 504.202148438 513.400390625 510.772460938 648.5 322.08203125 655 c 1
 322.08203125 424.099609375 l 1
90.01171875 529.440429688 m 1
 90.4619140625 457.530273438 175.162109375 442 272.08203125 430.08984375 c 1
 272.08203125 654.08984375 l 1
 84.4521484375 641.549804688 90.01171875 529.440429688 90.01171875 529.440429688 c 1
322.08203125 143.530273438 m 1
 514.671875 154.58984375 504.202148438 270.469726562 504.202148438 270.469726562 c 1
 504.15234375 343.0703125 419.251953125 358.740234375 322.08203125 370.650390625 c 1
 322.08203125 143.530273438 l 1
EndSplineSet
EndChar

StartChar: percent
Encoding: 37 37 92
Width: 810
VWidth: 0
Flags: HW
LayerCount: 2
Fore
SplineSet
197.919921875 740.950195312 m 0
 284.490234375 740.950195312 355.83984375 670.120117188 355.83984375 583.540039062 c 2
 355.83984375 560.349609375 l 2
 355.83984375 473.76953125 284.490234375 402.940429688 197.919921875 402.940429688 c 0
 111.350585938 402.940429688 40 473.76953125 40 560.349609375 c 2
 40 583.540039062 l 2
 40 670.120117188 111.350585938 740.950195312 197.919921875 740.950195312 c 0
305.83984375 563.780273438 m 2
 305.83984375 580.110351562 l 2
 305.83984375 641.0703125 257.080078125 690.950195312 197.919921875 690.950195312 c 0
 138.759765625 690.950195312 90 641.110351562 90 580.110351562 c 2
 90 563.780273438 l 2
 90 502.8203125 138.759765625 452.940429688 197.919921875 452.940429688 c 0
 257.080078125 452.940429688 305.83984375 502.780273438 305.83984375 563.780273438 c 2
612.759765625 344 m 0
 699.330078125 344 770.700195312 273.129882812 770.700195312 186.559570312 c 2
 770.700195312 163.360351562 l 2
 770.700195312 76.7900390625 699.33984375 5.98046875 612.759765625 5.98046875 c 0
 526.180664062 5.98046875 454.830078125 76.8203125 454.830078125 163.389648438 c 2
 454.830078125 186.58984375 l 2
 454.830078125 273.16015625 526.180664062 344 612.759765625 344 c 0
720.700195312 166.790039062 m 2
 720.700195312 183.129882812 l 2
 720.700195312 244.08984375 671.930664062 293.969726562 612.759765625 293.969726562 c 0
 553.58984375 293.969726562 504.830078125 244.129882812 504.830078125 183.129882812 c 2
 504.830078125 166.790039062 l 2
 504.830078125 105.830078125 553.620117188 55.9501953125 612.780273438 55.9501953125 c 0
 671.940429688 55.9501953125 720.700195312 105.790039062 720.700195312 166.790039062 c 2
155.040039062 0 m 1
 597.700195312 746.900390625 l 1
 655.8203125 746.900390625 l 1
 213.16015625 0 l 1
 155.040039062 0 l 1
EndSplineSet
EndChar

StartChar: ampersand
Encoding: 38 38 93
Width: 686
VWidth: 0
Flags: HW
LayerCount: 2
Fore
SplineSet
466.055664062 328 m 1
 646.055664062 0 l 1
 589.055664062 0 l 1
 490.5859375 179.389648438 l 1
 480.208984375 120.182617188 429.002929688 48.6904296875 376.286132812 19.8095703125 c 0
 266.385742188 -40.51953125 128.385742188 -0.349609375 68.0556640625 109.549804688 c 0
 7.7255859375 219.450195312 47.9052734375 357.450195312 157.786132812 417.780273438 c 0
 185.9375 433.264648438 234.861328125 445.83203125 266.991210938 445.83203125 c 0
 291.896484375 445.83203125 330.780273438 438.08984375 353.786132812 428.549804688 c 1
 268.055664062 584.700195312 l 2
 258.170898438 602.723632812 250.1484375 634.034179688 250.1484375 654.590820312 c 0
 250.1484375 702.073242188 283.930664062 759.153320312 325.555664062 782 c 1
 325.555664062 782 l 1
 343.592773438 791.904296875 374.932617188 799.943359375 395.510742188 799.943359375 c 0
 442.974609375 799.943359375 500.04296875 766.180664062 522.895507812 724.580078125 c 1
 522.895507812 724.580078125 l 1
 532.793945312 706.545898438 540.828125 675.213867188 540.828125 654.642578125 c 0
 540.828125 607.161132812 507.047851562 550.080078125 465.42578125 527.23046875 c 2
 415.155273438 499.639648438 l 1
 391.095703125 543.469726562 l 1
 441.365234375 571.059570312 l 2
 468.6640625 586.048828125 490.8203125 623.48828125 490.8203125 654.631835938 c 0
 490.8203125 668.126953125 485.549804688 688.6796875 479.055664062 700.509765625 c 1
 479.055664062 700.509765625 l 1
 464.067382812 727.810546875 426.626953125 749.967773438 395.482421875 749.967773438 c 0
 381.991210938 749.967773438 361.443359375 744.700195312 349.615234375 738.209960938 c 1
 349.615234375 738.209960938 l 1
 322.3125 723.22265625 300.153320312 685.780273438 300.153320312 654.633789062 c 0
 300.153320312 641.140625 305.422851562 620.588867188 311.916015625 608.759765625 c 2
 466.055664062 328 l 1
 466.055664062 328 l 1
352.215820312 63.6396484375 m 0
 402.909179688 91.4638671875 444.051757812 160.977539062 444.051757812 218.8046875 c 0
 444.051757812 243.85546875 434.26953125 282.009765625 422.215820312 303.969726562 c 0
 394.391601562 354.663085938 324.877929688 395.8046875 267.051757812 395.8046875 c 0
 169.34765625 395.8046875 90.0517578125 316.508789062 90.0517578125 218.8046875 c 0
 90.0517578125 121.100585938 169.34765625 41.8046875 267.051757812 41.8046875 c 0
 292.102539062 41.8046875 330.255859375 51.5869140625 352.215820312 63.6396484375 c 0
EndSplineSet
EndChar

StartChar: quotesingle
Encoding: 39 39 94
Width: 188
VWidth: 0
Flags: HW
LayerCount: 2
Fore
SplineSet
97.419921875 738 m 1
 148 738 l 1
 138.575195312 675.068359375 110.799804688 576.432617188 86 517.830078125 c 1
 40 537.299804688 l 1
 62.609375 590.758789062 88.3330078125 680.672851562 97.419921875 738 c 1
EndSplineSet
EndChar

StartChar: asterisk
Encoding: 42 42 95
Width: 505
VWidth: 0
Flags: HW
LayerCount: 2
Fore
SplineSet
465.119140625 338.080078125 m 1
 295.349609375 280.240234375 l 1
 400.559570312 134.150390625 l 1
 359.9296875 104.940429688 l 1
 252.559570312 254.099609375 l 1
 145.189453125 104.940429688 l 1
 104.609375 134.150390625 l 1
 209.76953125 280.240234375 l 1
 40 338.080078125 l 1
 56.1298828125 385.41015625 l 1
 227.559570312 327 l 1
 227.559570312 508.360351562 l 1
 277.559570312 508.360351562 l 1
 277.559570312 327 l 1
 448.989257812 385.41015625 l 1
 465.119140625 338.080078125 l 1
EndSplineSet
EndChar

StartChar: plus
Encoding: 43 43 96
Width: 512
VWidth: 0
Flags: HW
LayerCount: 2
Fore
SplineSet
472.740234375 325 m 1
 472.740234375 275 l 1
 281.370117188 275 l 1
 281.370117188 83.6298828125 l 1
 231.370117188 83.6298828125 l 1
 231.370117188 275 l 1
 40 275 l 1
 40 325 l 1
 231.370117188 325 l 1
 231.370117188 516.370117188 l 1
 281.370117188 516.370117188 l 1
 281.370117188 325 l 1
 472.740234375 325 l 1
EndSplineSet
EndChar

StartChar: comma
Encoding: 44 44 97
Width: 164
VWidth: 0
Flags: HW
LayerCount: 2
Fore
SplineSet
83.23046875 -29.669921875 m 1
 40 -1.51953125 l 1
 52.41015625 35.669921875 67.4677734375 97.2783203125 73.6103515625 136 c 1
 124.23046875 136 l 1
 117.224609375 89.2080078125 98.8564453125 14.98828125 83.23046875 -29.669921875 c 1
EndSplineSet
EndChar

StartChar: period
Encoding: 46 46 98
Width: 140
VWidth: 0
Flags: HW
LayerCount: 2
Fore
SplineSet
40 30 m 0
 40 46.568359375 53.431640625 60 70 60 c 0
 86.568359375 60 100 46.568359375 100 30 c 0
 100 13.431640625 86.568359375 0 70 0 c 0
 53.431640625 0 40 13.431640625 40 30 c 0
EndSplineSet
EndChar

StartChar: slash
Encoding: 47 47 99
Width: 419
VWidth: 0
Flags: HW
LayerCount: 2
Fore
SplineSet
87.55078125 -112.45703125 m 1
 40 -96.9970703125 l 1
 331.618164062 799.978515625 l 1
 379.168945312 784.51953125 l 1
 87.55078125 -112.45703125 l 1
EndSplineSet
EndChar

StartChar: zero
Encoding: 48 48 100
Width: 650
VWidth: 0
Flags: HW
LayerCount: 2
Fore
SplineSet
325 764 m 0
 481.240234375 764 610 623.200195312 610 426.620117188 c 2
 610 333.950195312 l 2
 610 137.379882812 481.240234375 -3.4599609375 325 -3.4599609375 c 0
 168.759765625 -3.4599609375 40 137.379882812 40 333.950195312 c 2
 40 426.620117188 l 2
 40 623.200195312 168.759765625 764 325 764 c 0
560 337.389648438 m 2
 560 423.190429688 l 2
 560 594.16015625 453.830078125 714 325 714 c 0
 196.169921875 714 90 594.16015625 90 423.190429688 c 2
 90 337.389648438 l 2
 90 166.419921875 196.169921875 46.5400390625 325 46.5400390625 c 0
 453.830078125 46.5400390625 560 166.389648438 560 337.389648438 c 2
EndSplineSet
EndChar

StartChar: one
Encoding: 49 49 101
Width: 222
VWidth: 0
Flags: HW
LayerCount: 2
Fore
SplineSet
182 746.900390625 m 1
 182 0 l 1
 132 0 l 1
 132 696.900390625 l 1
 40 696.900390625 l 1
 40 746.900390625 l 1
 182 746.900390625 l 1
EndSplineSet
EndChar

StartChar: two
Encoding: 50 50 102
Width: 605
VWidth: 0
Flags: HW
LayerCount: 2
Fore
SplineSet
565 500.41015625 m 0
 565 292.669921875 314.6796875 128.309570312 168.389648438 50 c 1
 565 50 l 1
 565 0 l 1
 65.33984375 0 l 1
 65.33984375 50 l 1
 65.33984375 50 515 256 515 500.41015625 c 0
 515 582.4296875 449.5 712.91015625 302.5 712.91015625 c 0
 155.5 712.91015625 90 582.41015625 90 500.41015625 c 1
 40 500.41015625 l 1
 40 645.389648438 157.530273438 762.91015625 302.5 762.91015625 c 0
 447.469726562 762.91015625 565 645.41015625 565 500.41015625 c 0
EndSplineSet
EndChar

StartChar: three
Encoding: 51 51 103
Width: 561
VWidth: 0
Flags: HW
LayerCount: 2
Fore
SplineSet
338.209960938 512.509765625 m 1
 444.599609375 478.509765625 521.629882812 378.860351562 521.599609375 261.200195312 c 0
 521.599609375 115.509765625 403.5 -2.599609375 257.799804688 -2.599609375 c 0
 257.762695312 -2.599609375 257.701171875 -2.599609375 257.6640625 -2.599609375 c 0
 180.819335938 -2.599609375 83.3056640625 48.919921875 40 112.400390625 c 1
 72 139.400390625 l 1
 72 139.400390625 139.4296875 47.400390625 257.830078125 47.400390625 c 0
 375.91015625 47.400390625 471.629882812 143.120117188 471.629882812 261.200195312 c 0
 471.629882812 362.650390625 400.969726562 447.599609375 306.169921875 469.509765625 c 0
 293.037109375 472.540039062 271.439453125 475 257.9609375 475 c 0
 257.924804688 475 257.866210938 475 257.830078125 475 c 0
 254.439453125 475 251.069335938 474.91015625 247.719726562 474.759765625 c 2
 413.26953125 696.900390625 l 1
 44.4501953125 696.900390625 l 1
 44.4501953125 746.900390625 l 1
 512.889648438 746.900390625 l 1
 338.209960938 512.509765625 l 1
EndSplineSet
EndChar

StartChar: four
Encoding: 52 52 104
Width: 674
VWidth: 0
Flags: HW
LayerCount: 2
Fore
SplineSet
634.5 182.0703125 m 1
 634.489257812 132.0703125 l 1
 547.26953125 132.0703125 l 1
 547.26953125 0 l 1
 497.26953125 0 l 1
 497.26953125 132.0703125 l 1
 40 132.0703125 l 1
 497.26953125 746.900390625 l 1
 547.26953125 746.900390625 l 1
 547.26953125 182.0703125 l 1
 634.5 182.0703125 l 1
139.5 182.0703125 m 1
 497.26953125 182.0703125 l 1
 497.26953125 663.120117188 l 1
 139.5 182.0703125 l 1
EndSplineSet
EndChar

StartChar: five
Encoding: 53 53 105
Width: 561
VWidth: 0
Flags: HW
LayerCount: 2
Fore
SplineSet
521.629882812 264 m 0
 521.629882812 118 403.649414062 -0.4296875 257.799804688 -1.1796875 c 1
 257.799804688 -2.599609375 l 2
 257.765625 -2.599609375 257.7109375 -2.599609375 257.677734375 -2.599609375 c 0
 180.82421875 -2.599609375 83.3046875 48.9287109375 40 112.419921875 c 1
 72 139.419921875 l 1
 72 139.419921875 138.91015625 48.1298828125 256.450195312 47.419921875 c 1
 256.450195312 48.7998046875 l 1
 375.290039062 48.7998046875 471.629882812 145.120117188 471.629882812 263.959960938 c 0
 471.629882812 382.799804688 375.290039062 479.139648438 256.450195312 479.139648438 c 0
 256.42578125 479.139648438 256.385742188 479.139648438 256.362304688 479.139648438 c 0
 188.794921875 479.139648438 105.954101562 431.9921875 71.4501953125 373.900390625 c 1
 71.4501953125 746.900390625 l 1
 486.450195312 746.900390625 l 1
 486.450195312 696.900390625 l 1
 121.450195312 696.900390625 l 1
 121.450195312 492.26953125 l 1
 155.797851562 512.64453125 216.086914062 529.180664062 256.0234375 529.180664062 c 0
 256.140625 529.180664062 256.33203125 529.180664062 256.450195312 529.1796875 c 0
 402.899414062 529.1796875 521.629882812 410.459960938 521.629882812 264 c 0
EndSplineSet
EndChar

StartChar: six
Encoding: 54 54 106
Width: 610
VWidth: 0
Flags: HW
LayerCount: 2
Fore
SplineSet
305.190429688 529.169921875 m 0
 451.650390625 529.169921875 570.380859375 410.469726562 570.380859375 264 c 0
 570.380859375 117.530273438 451.650390625 -1.2001953125 305.190429688 -1.2001953125 c 0
 158.73046875 -1.2001953125 40 117.530273438 40 264 c 0
 40 566.870117188 419.060546875 755 422.91015625 756.900390625 c 1
 440.640625 718.16015625 l 2
 439.990234375 717.830078125 249.450195312 621.190429688 149.560546875 459.559570312 c 1
 190.900390625 505.290039062 242.260742188 529.169921875 305.190429688 529.169921875 c 0
305.190429688 48.7998046875 m 0
 424.030273438 48.7998046875 520.380859375 145.169921875 520.380859375 264 c 0
 520.380859375 382.830078125 424.030273438 479.169921875 305.190429688 479.169921875 c 0
 186.350585938 479.169921875 90 382.83984375 90 263.990234375 c 0
 90 145.139648438 186.350585938 48.7998046875 305.190429688 48.7998046875 c 0
EndSplineSet
EndChar

StartChar: seven
Encoding: 55 55 107
Width: 604
VWidth: 0
Flags: HW
LayerCount: 2
Fore
SplineSet
231.520507812 0 m 1
 251.560546875 385.559570312 506.3203125 696.900390625 506.3203125 696.900390625 c 1
 40 696.900390625 l 1
 40 746.900390625 l 1
 564.830078125 746.900390625 l 1
 564.830078125 696.900390625 l 1
 564.830078125 696.900390625 303.680664062 362.610351562 280.919921875 0 c 1
 231.520507812 0 l 1
EndSplineSet
EndChar

StartChar: eight
Encoding: 56 56 108
Width: 543
VWidth: 0
Flags: HW
LayerCount: 2
Fore
SplineSet
371.530273438 438.849609375 m 1
 444.465820312 404.1015625 503.66015625 310.331054688 503.66015625 229.541015625 c 0
 503.66015625 229.529296875 503.66015625 229.51171875 503.66015625 229.5 c 0
 503.66015625 101.459960938 399.870117188 -2.330078125 271.830078125 -2.330078125 c 0
 143.790039062 -2.330078125 40 101.5 40 229.5 c 0
 40 229.51171875 40 229.529296875 40 229.541015625 c 0
 40 310.331054688 99.1943359375 404.1015625 172.129882812 438.849609375 c 1
 129.26171875 467.987304688 94.4697265625 533.702148438 94.4697265625 585.53515625 c 0
 94.4697265625 683.4375 173.927734375 762.89453125 271.830078125 762.89453125 c 0
 369.732421875 762.89453125 449.190429688 683.4375 449.190429688 585.53515625 c 0
 449.190429688 533.702148438 414.3984375 467.987304688 371.530273438 438.849609375 c 1
144.469726562 585.549804688 m 0
 144.469726562 515.247070312 201.52734375 458.190429688 271.830078125 458.190429688 c 0
 342.1328125 458.190429688 399.190429688 515.247070312 399.190429688 585.549804688 c 0
 399.190429688 655.852539062 342.1328125 712.91015625 271.830078125 712.91015625 c 0
 201.52734375 712.91015625 144.469726562 655.852539062 144.469726562 585.549804688 c 0
271.830078125 47.669921875 m 0
 372.200195312 47.669921875 453.66015625 129.129882812 453.66015625 229.5 c 0
 453.66015625 329.870117188 372.200195312 411.330078125 271.830078125 411.330078125 c 0
 171.459960938 411.330078125 90 329.870117188 90 229.5 c 0
 90 129.129882812 171.459960938 47.669921875 271.830078125 47.669921875 c 0
EndSplineSet
EndChar

StartChar: nine
Encoding: 57 57 109
Width: 610
VWidth: 0
Flags: HW
LayerCount: 2
Fore
SplineSet
305.190429688 226.51953125 m 0
 158.73046875 226.51953125 40 345.25 40 491.709960938 c 0
 40 638.169921875 158.73046875 756.900390625 305.190429688 756.900390625 c 0
 451.650390625 756.900390625 570.380859375 638.169921875 570.380859375 491.709960938 c 0
 570.380859375 188.799804688 191.3203125 0.7197265625 187.470703125 -1.2001953125 c 1
 169.740234375 37.5400390625 l 2
 170.390625 37.8701171875 360.930664062 134.5 460.8203125 296.139648438 c 1
 419.48046875 250.400390625 368.120117188 226.51953125 305.190429688 226.51953125 c 0
305.190429688 706.900390625 m 0
 186.350585938 706.900390625 90 610.549804688 90 491.709960938 c 0
 90 372.870117188 186.350585938 276.51953125 305.190429688 276.51953125 c 0
 424.030273438 276.51953125 520.380859375 372.860351562 520.380859375 491.709960938 c 0
 520.380859375 610.559570312 424.030273438 706.900390625 305.190429688 706.900390625 c 0
EndSplineSet
EndChar

StartChar: colon
Encoding: 58 58 110
Width: 140
VWidth: 0
Flags: HW
LayerCount: 2
Fore
SplineSet
40 30 m 0
 40 46.568359375 53.431640625 60 70 60 c 0
 86.568359375 60 100 46.568359375 100 30 c 0
 100 13.431640625 86.568359375 0 70 0 c 0
 53.431640625 0 40 13.431640625 40 30 c 0
40 452.990234375 m 0
 40 469.55859375 53.431640625 482.990234375 70 482.990234375 c 0
 86.568359375 482.990234375 100 469.55859375 100 452.990234375 c 0
 100 436.421875 86.568359375 422.990234375 70 422.990234375 c 0
 53.431640625 422.990234375 40 436.421875 40 452.990234375 c 0
EndSplineSet
EndChar

StartChar: semicolon
Encoding: 59 59 111
Width: 164
VWidth: 0
Flags: HW
LayerCount: 2
Fore
SplineSet
52.1103515625 452.990234375 m 0
 52.1103515625 469.55859375 65.5419921875 482.990234375 82.1103515625 482.990234375 c 0
 98.6787109375 482.990234375 112.110351562 469.55859375 112.110351562 452.990234375 c 0
 112.110351562 436.421875 98.6787109375 422.990234375 82.1103515625 422.990234375 c 0
 65.5419921875 422.990234375 52.1103515625 436.421875 52.1103515625 452.990234375 c 0
83.23046875 -29.669921875 m 1
 40 -1.51953125 l 1
 52.41015625 35.669921875 67.4677734375 97.2783203125 73.6103515625 136 c 1
 124.23046875 136 l 1
 117.224609375 89.2080078125 98.8564453125 14.98828125 83.23046875 -29.669921875 c 1
EndSplineSet
EndChar

StartChar: equal
Encoding: 61 61 112
Width: 507
VWidth: 0
Flags: HW
LayerCount: 2
Fore
SplineSet
40 185 m 1
 40 235 l 1
 467.470703125 235 l 1
 467.470703125 185 l 1
 40 185 l 1
40 365 m 1
 40 415 l 1
 467.470703125 415 l 1
 467.470703125 365 l 1
 40 365 l 1
EndSplineSet
EndChar

StartChar: question
Encoding: 63 63 113
Width: 618
VWidth: 0
Flags: HW
LayerCount: 2
Fore
SplineSet
279.474609375 30.2197265625 m 0
 279.474609375 46.7880859375 292.90625 60.2197265625 309.474609375 60.2197265625 c 0
 326.04296875 60.2197265625 339.474609375 46.7880859375 339.474609375 30.2197265625 c 0
 339.474609375 13.6513671875 326.04296875 0.2197265625 309.474609375 0.2197265625 c 0
 292.90625 0.2197265625 279.474609375 13.6513671875 279.474609375 30.2197265625 c 0
500.004882812 721.080078125 m 1
 605.224609375 615.860351562 605.224609375 445.25 500.004882812 340 c 2
 309.474609375 149.5 l 1
 274.114257812 184.849609375 l 1
 464.64453125 375.370117188 l 2
 550.344726562 461.0703125 550.344726562 600.01953125 464.64453125 685.719726562 c 1
 464.64453125 685.719726562 l 1
 378.944335938 771.41015625 240.004882812 771.41015625 154.3046875 685.719726562 c 1
 154.3046875 685.719726562 l 1
 118.8125 650.279296875 90.0078125 580.809570312 90.0078125 530.65234375 c 0
 90.0078125 521.02734375 91.2431640625 505.50390625 92.7646484375 496 c 1
 43.6142578125 486.719726562 l 1
 41.619140625 498.770507812 40 518.463867188 40 530.678710938 c 0
 40 592.263671875 75.3671875 677.563476562 118.944335938 721.080078125 c 1
 118.944335938 721.080078125 l 1
 224.174804688 826.309570312 394.774414062 826.309570312 500.004882812 721.080078125 c 1
 500.004882812 721.080078125 l 1
EndSplineSet
EndChar

StartChar: at
Encoding: 64 64 114
Width: 837
VWidth: 0
Flags: HW
LayerCount: 2
Fore
SplineSet
423.290039062 534 m 1
 423.129882812 534 l 1
 422.969726562 534 422.799804688 534 423.129882812 534 c 1
 423.459960938 534 423.290039062 534 423.129882812 534 c 1
 423.290039062 534 l 1
423.129882812 66 m 1
 423.129882812 66 l 1
 423.290039062 66 423.459960938 66 423.129882812 66 c 1
 422.799804688 66 422.969726562 66 423.129882812 66 c 1
 423.129882812 66 l 1
418.599609375 705.169921875 m 0
 626.149414062 705.169921875 797.19921875 535.349609375 797.19921875 327.799804688 c 2
 797.19921875 168.709960938 l 2
 797.19921875 168.709960938 797.19921875 168.709960938 797.19921875 168.709960938 c 0
 797.19921875 112.030273438 751.19921875 66.0166015625 694.51953125 66 c 1
 694.51953125 66 l 1
 694.513671875 66 694.50390625 66 694.498046875 66 c 0
 647.415039062 66 602.176757812 103.560546875 593.51953125 149.83984375 c 1
 552.989257812 99.8603515625 490.959960938 67.259765625 423.129882812 66.0498046875 c 1
 423.129882812 66.0498046875 l 1
 305.040039062 68.16015625 204.469726562 165.379882812 204.469726562 283.940429688 c 2
 204.469726562 316.059570312 l 2
 204.469726562 434.620117188 305.040039062 531.83984375 423.129882812 533.950195312 c 1
 423.129882812 533.950195312 l 1
 541.219726562 531.83984375 641.790039062 434.620117188 641.790039062 316.059570312 c 2
 641.790039062 168.709960938 l 2
 641.790039062 168.70703125 641.790039062 168.703125 641.790039062 168.700195312 c 0
 641.790039062 139.609375 665.399414062 116 694.489257812 116 c 0
 694.489257812 116 694.489257812 116 694.489257812 116 c 1
 694.489257812 116 l 1
 723.5859375 116 747.19921875 139.614257812 747.19921875 168.709960938 c 2
 747.19921875 324.370117188 l 2
 747.19921875 506.309570312 598.739257812 655.169921875 418.599609375 655.169921875 c 0
 238.459960938 655.169921875 90 506.309570312 90 324.370117188 c 2
 90 275.629882812 l 2
 90 93.6904296875 238.459960938 -55.169921875 418.599609375 -55.169921875 c 0
 469.099609375 -55.16796875 545.012695312 -33.7216796875 588.049804688 -7.2998046875 c 1
 608.279296875 -53.8701171875 l 1
 559.7890625 -82.1875 474.860351562 -105.169921875 418.70703125 -105.169921875 c 0
 418.677734375 -105.169921875 418.62890625 -105.169921875 418.599609375 -105.169921875 c 0
 211 -105.169921875 40 64.650390625 40 272.200195312 c 2
 40 327.799804688 l 2
 40 535.349609375 211.049804688 705.169921875 418.599609375 705.169921875 c 0
423.129882812 484 m 1
 423.129882812 484 l 1
423.129882812 116 m 1
 423.129882812 116 l 1
423.129882812 116 m 1
 513.979492188 117.700195312 591.790039062 194.150390625 591.790039062 287.370117188 c 2
 591.790039062 312.629882812 l 2
 591.790039062 405.849609375 513.979492188 482.299804688 423.129882812 483.959960938 c 1
 423.129882812 483.959960938 l 1
 332.279296875 482.299804688 254.469726562 405.849609375 254.469726562 312.629882812 c 2
 254.469726562 287.330078125 l 2
 254.469726562 194.110351562 332.279296875 117.66015625 423.129882812 116 c 1
 423.129882812 116 l 1
EndSplineSet
EndChar

StartChar: bracketleft
Encoding: 91 91 115
Width: 305
VWidth: 0
Flags: HW
LayerCount: 2
Fore
SplineSet
265 750 m 1
 90 750 l 1
 90 -44 l 1
 265 -44 l 1
 265 -94 l 1
 40 -94 l 1
 40 800 l 1
 265 800 l 1
 265 750 l 1
EndSplineSet
EndChar

StartChar: backslash
Encoding: 92 92 116
Width: 419
VWidth: 0
Flags: HW
LayerCount: 2
Fore
SplineSet
331.618164062 -112.427734375 m 1
 40 784.548828125 l 1
 87.55078125 800.0078125 l 1
 379.168945312 -96.9677734375 l 1
 331.618164062 -112.427734375 l 1
EndSplineSet
EndChar

StartChar: bracketright
Encoding: 93 93 117
Width: 305
VWidth: 0
Flags: HW
LayerCount: 2
Fore
SplineSet
40 -44 m 1
 215 -44 l 1
 215 750 l 1
 40 750 l 1
 40 800 l 1
 265 800 l 1
 265 -94 l 1
 40 -94 l 1
 40 -44 l 1
EndSplineSet
EndChar

StartChar: grave
Encoding: 96 96 118
Width: 188
VWidth: 0
Flags: HW
LayerCount: 2
Fore
SplineSet
90.580078125 738 m 1
 99.6669921875 680.672851562 125.390625 590.758789062 148 537.299804688 c 1
 102 517.830078125 l 1
 77.2001953125 576.432617188 49.4248046875 675.068359375 40 738 c 1
 90.580078125 738 l 1
EndSplineSet
EndChar

StartChar: braceleft
Encoding: 123 123 119
Width: 348
VWidth: 0
Flags: HW
LayerCount: 2
Fore
SplineSet
199.26953125 487.26953125 m 2
 199.26953125 487.244140625 199.26953125 487.202148438 199.26953125 487.176757812 c 0
 199.26953125 439.009765625 166.310546875 378.899414062 125.69921875 353 c 1
 166.310546875 327.100585938 199.26953125 266.990234375 199.26953125 218.823242188 c 0
 199.26953125 218.797851562 199.26953125 218.755859375 199.26953125 218.73046875 c 2
 199.26953125 65.26953125 l 2
 199.26953125 4.953125 248.22265625 -44 308.5390625 -44 c 1
 308.5390625 -44 l 1
 308.5390625 -94 l 1
 308.5390625 -94 l 1
 220.622070312 -94 149.26953125 -22.6474609375 149.26953125 65.26953125 c 2
 149.26953125 218.73046875 l 2
 149.26953125 279.046875 100.31640625 328 40 328 c 1
 40 378 l 1
 100.31640625 378 149.26953125 426.953125 149.26953125 487.26953125 c 2
 149.26953125 640.73046875 l 2
 149.26953125 728.647460938 220.622070312 800 308.5390625 800 c 1
 308.5390625 800 l 1
 308.5390625 750 l 1
 308.5390625 750 l 1
 248.22265625 750 199.26953125 701.046875 199.26953125 640.73046875 c 2
 199.26953125 487.26953125 l 2
EndSplineSet
EndChar

StartChar: bar
Encoding: 124 124 120
Width: 130
VWidth: 0
Flags: HW
LayerCount: 2
Fore
SplineSet
40 -152.700195312 m 1
 40 746.900390625 l 1
 90 746.900390625 l 1
 90 -152.700195312 l 1
 40 -152.700195312 l 1
EndSplineSet
EndChar

StartChar: braceright
Encoding: 125 125 121
Width: 348
VWidth: 0
Flags: HW
LayerCount: 2
Fore
SplineSet
149.26953125 218.73046875 m 2
 149.26953125 218.752929688 149.26953125 218.790039062 149.26953125 218.8125 c 0
 149.26953125 266.981445312 182.228515625 327.096679688 222.83984375 353 c 1
 182.228515625 378.899414062 149.26953125 439.009765625 149.26953125 487.176757812 c 0
 149.26953125 487.202148438 149.26953125 487.244140625 149.26953125 487.26953125 c 2
 149.26953125 640.73046875 l 2
 149.26953125 701.046875 100.31640625 750 40 750 c 1
 40 750 l 1
 40 800 l 1
 40 800 l 1
 127.916992188 800 199.26953125 728.647460938 199.26953125 640.73046875 c 2
 199.26953125 487.26953125 l 2
 199.26953125 426.953125 248.22265625 378 308.5390625 378 c 1
 308.5390625 328 l 1
 248.22265625 328 199.26953125 279.046875 199.26953125 218.73046875 c 2
 199.26953125 65.26953125 l 2
 199.26953125 -22.6474609375 127.916992188 -94 40 -94 c 1
 40 -94 l 1
 40 -44 l 1
 40 -44 l 1
 100.31640625 -44 149.26953125 4.953125 149.26953125 65.26953125 c 2
 149.26953125 218.73046875 l 2
EndSplineSet
EndChar

StartChar: asciitilde
Encoding: 126 126 122
Width: 564
VWidth: 0
Flags: HW
LayerCount: 2
Fore
SplineSet
520.350585938 545.509765625 m 0
 522.7578125 537.635742188 524.711914062 524.561523438 524.711914062 516.327148438 c 0
 524.711914062 461.2265625 479.9921875 416.506835938 424.891601562 416.506835938 c 0
 411.161132812 416.506835938 390.17578125 421.736328125 378.05078125 428.1796875 c 1
 378.05078125 428.1796875 l 1
 163.200195312 542.490234375 l 2
 157.143554688 545.712890625 146.66015625 548.328125 139.798828125 548.328125 c 0
 112.298828125 548.328125 89.9794921875 526.008789062 89.9794921875 498.5078125 c 0
 89.9794921875 494.403320312 90.9521484375 487.885742188 92.150390625 483.959960938 c 1
 45.150390625 466.959960938 l 2
 44.880859375 467.759765625 44.6005859375 468.549804688 44.3505859375 469.360351562 c 0
 41.94921875 477.225585938 40 490.28515625 40 498.508789062 c 0
 40 553.609375 84.71875 598.329101562 139.819335938 598.329101562 c 0
 153.567382812 598.329101562 174.57421875 593.087890625 186.7109375 586.629882812 c 2
 401.55078125 472.379882812 l 1
 401.55078125 472.379882812 l 1
 407.594726562 469.174804688 418.051757812 466.573242188 424.892578125 466.573242188 c 0
 452.392578125 466.573242188 474.711914062 488.892578125 474.711914062 516.393554688 c 0
 474.711914062 520.489257812 473.744140625 526.9921875 472.55078125 530.91015625 c 1
 519.55078125 547.91015625 l 2
 519.8203125 547.110351562 520.100585938 546.3203125 520.350585938 545.509765625 c 0
EndSplineSet
EndChar

